<?xml version="1.0" encoding="utf-8"?>
<!-- Generator: Adobe Illustrator 22.0.1, SVG Export Plug-In . SVG Version: 6.00 Build 0)  -->
<svg version="1.1" id="Layer_1" xmlns="http://www.w3.org/2000/svg" xmlns:xlink="http://www.w3.org/1999/xlink" x="0px" y="0px"
	 viewBox="0 0 2400 2389.1" style="enable-background:new 0 0 2400 2389.1;" xml:space="preserve">
<style type="text/css">
	.st0{fill:#DD8C0A;}
	.st1{fill:#FFF200;}
</style>
<path class="st0" d="M631.6,1622.1c48.1-51.4,107.8-60.7,178.3-41.1c-33-44.2-74-59.8-121.9-62.3c-57-3-111.9,10.2-167.5,19.3
	c-40.9,6.7-82.2,11.2-123.4,15.4c-7.2,0.7-15-4.7-22.5-7.3c3.9-6.3,6.8-13.7,11.9-18.6c49.8-47.5,110.3-66.3,177.9-64.6
	c46.5,1.2,91.4,10.6,134.3,29c7.6,3.3,15.4,6.2,26.2,5.9c-6.2-6.6-13.3-12.6-18.4-20c-55.2-80.6-139.3-105.6-229.1-118.4
	c-65.2-9.3-130.8-15.6-196.1-24.2c-20.4-2.7-40.6-8.1-60.6-13.2c-6.3-1.6-11.8-6.5-20.4-11.5c6.8-5.4,10.7-9.9,15.5-12
	c74.4-33.2,148.4-33.3,227.1-10c61.3,18.2,115.3,47.3,170.6,79c-2.1-4.1-4.3-8.2-6.4-12.4c-47-92.9-131.7-135.8-224.1-167.5
	c-80.9-27.7-162.3-53.9-243.4-81c-9.2-3.1-18.3-7-26.4-12.2c-4.8-3-7.6-9.2-11.3-14c4.6-3.1,8.9-7.7,14-8.9
	c42.5-10.2,85.5-15.6,129.3-10.3c99.6,12,181.1,59.7,251.5,128.7c6.8,6.7,11.7,15.4,17.4,23.1c2.4-1.8,4.8-3.6,7.3-5.3
	c-4.2-10.8-10.3-21.2-12.4-32.4c-12.2-66.5-61-99.3-115.4-126.9c-72.8-36.9-142.3-78-193.2-144.1c-26.4-34.3-56.5-66.7-61.2-112.7
	c-0.7-7.1,1.6-14.6,2.5-21.9c6.4,1.9,13.6,2.4,19.1,5.8c68,42.6,128.7,92.9,179.2,156.5c39.8,50.1,85.8,95.4,129.1,142.7
	c1.1,1.2,3.3,1.3,8,3.1c-11.4-47.1-13.5-95.1-42-133.7c-39.6-53.6-80.1-106.7-123.8-157C272.1,742,238,695,217.6,638.5
	c-5.4-15.1-15.1-28.6-21.4-43.5c-3.7-8.7-4.5-18.5-3.4-29.2C327.3,646,401.6,768.2,439.9,916.3c1.8-0.9,3.6-1.9,5.4-2.8
	c-1.7-24.8-4.1-49.6-5-74.5c-1-28.5,0-57.1-1.5-85.6c-0.5-9.5-4.6-19.9-10-27.9c-23.1-34.4-51.3-65.9-70.2-102.4
	c-49.5-95.3-47.5-192,3.1-287.1c6.4-12.1,12.9-24.1,19.4-36.2c2.4,0.2,4.7,0.5,7.1,0.7c2.6,9.4,7.3,18.7,7.6,28.1
	c1.8,63.5,2.4,127.1,3.7,190.7c1.1,55.4,6.1,110.2,28.2,161.9c2.5,5.7,5.4,11.3,12.5,16.6c3.6-25.8,6.6-51.7,10.8-77.5
	c3.5-21.7,6.3-43.9,13-64.7c14.2-43.9,15.1-89.2,17.8-134.5c8.1-135.4,79-232.6,187-307c4.1-2.8,10.6-2.2,15.9-3.2
	c0,5.5,1.9,11.8-0.2,16.2c-11.7,24.5-23.7,49-36.8,72.8c-45.6,82.9-93.9,164.3-137,248.5c-30.5,59.7-44.3,125.3-48.3,193.2
	c27-76.4,60.5-148.4,132.7-192.5c36.1-22.1,74.4-40.8,111.6-61.1c2,1.8,4,3.6,6.1,5.3c-3.5,8.8-5.3,18.9-10.9,26.2
	c-19.7,25.7-40.4,50.7-61.2,75.5c-55.8,66.5-112.2,132.6-167.8,199.2c-18.2,21.8-25.4,47.4-22.8,76.1c6.3,70.3,11.8,140.7,17.8,211
	c0.6,6.5,3,12.9,7.7,20c-1.4-135.1,47.8-242.6,170.6-313.1c-1.7,11.1-1,23.3-5.4,33.2c-24.2,54.5-49.4,108.5-74.6,162.6
	c-28.5,61.3-53.8,123.5-63,191.3c-3.6,26.5-1.6,51.4,9.3,75.9c19,43,37.5,86.4,56.2,129.6c2.7-0.7,5.4-1.4,8-2.2
	c-0.7-9.5-1.3-19-2.2-28.5c-9.9-104,7-203.1,54.7-296.3c26.7-52.2,66.9-92,117.2-121.6c4.5-2.6,10.6-2.4,16-3.6
	c0.6,6,3.4,13,1.3,17.9c-18.2,43.6-36.5,87.2-56.2,130.2c-36.9,80.7-77.5,160-99.8,246.6c-1.6,6.3-2.4,12.8-4.6,18.9
	c-18.1,52.2-3.3,95.4,33.3,134.7c26,28,49.3,58.4,73.5,88.1c3.9,4.8,6.1,11.1,9.1,16.7c2.3-2,4.6-4,6.9-6c-6-16.8-13-33.3-17.7-50.4
	c-21.1-76.4-25.7-152.8,12.5-225.2c13-24.7,34.4-45,52.8-66.6c3.6-4.3,10.9-5.4,16.5-8c2.3,6.3,7.5,13.1,6.5,18.8
	c-7.2,40.7-14.3,81.6-24.2,121.7c-14.4,58.6-32.1,116.3-29.8,177.7c1.4,37.8,9,71.3,41.7,95.6c21.7,16.1,41.3,35,65.6,50.6
	c-2.8-13.9-6.2-27.8-8.5-41.8c-11.2-70,7.8-128.3,67.6-170.1c5.8-4,13.8-4.9,20.7-7.3c0.8,7.9,4.3,16.6,2.1,23.4
	c-8.4,25.9-19.4,50.9-27.9,76.7c-11.2,33.7-22.5,67.4-31.1,101.9c-6.1,24.6,1.4,45.2,26.1,58.5c43.9,23.7,86.8,49,130.2,73.6
	c5.8,3.3,11.8,6.3,17.6,9.4c-0.6,2-1.3,4-1.9,5.9c-6-1.4-12.7-1.5-17.9-4.3c-39.3-21.2-80.1-40.3-116.9-65.3
	c-39.8-27-81.6-34-127.6-29.2c-41.3,4.3-82.6,8.1-123.9,11.3c-8.5,0.7-17.3-2-25.9-3.1C632.2,1627.2,631.9,1624.7,631.6,1622.1z
	 M648.6,1049.2c-4.5,3.3-9.7,6.1-13.2,10.2c-2.9,3.5-3.9,8.6-5.8,13c4.1,0.9,8.1,1.9,12.2,2.8c-15.9,4.6-23.6,16-27.4,31.4
	c-5.5,22.5-12.6,44.7-17.2,67.4c-3.4,16.7-3.9,34.1-5.6,51.1c1.6,0.2,3.2,0.4,4.8,0.6c2.3-7.2,4.5-14.5,7-21.6
	c11.1-31.8,22.8-63.5,33.2-95.6c3.4-10.5,3.3-22.1,4.9-33.2c9.1-5.8,22-9.6,13-24.8c5.2-5.6,10.3-11.1,15.5-16.7
	c-1.1-1.7-2.3-3.4-3.4-5.1c-8.2,3.7-17.9,5.8-24.2,11.6C635.8,1046.5,637.6,1052.6,648.6,1049.2z M498.6,1518.3
	c-27.7,6.1-55.3,12.3-83,18.4c0.7,2.8,1.4,5.5,2,8.3c12.4-3,25-9.1,37.2-8.4c18.8,1.1,33.4-2.9,44-18.8c-0.5,3.6-1,7.2-1.6,10.8
	c1,0.7,2.1,1.5,3.1,2.2c2.3-4.3,4.7-8.6,7-12.8c0.9,2.6,1.9,5.3,2.8,7.9c12.2-1.1,25-0.4,36.4-4c7.9-2.6,13.9-11.2,20.7-17.2
	c-1.6-2.8-3.2-5.5-4.9-8.3C541.3,1503.7,520,1511,498.6,1518.3z M754.1,1247.3c27.4-22.4,21.2-55.5,28.4-84.4
	c-9.1,15.6-16.1,32-21.4,48.9c-3.6,11.4-4.6,23.5-6.7,35.3c-19,17.6-17.6,42.1-25,65.9c27.4-10.6,28.6-13.2,32.3-67.6
	C759.1,1246.1,756.6,1246.7,754.1,1247.3z M583,807c6.9-8.4,15.5-15.8,20.5-25.2c10.5-19.9,19.1-40.7,28.5-61.2
	c-2.2-1.2-4.3-2.4-6.5-3.6c-17.1,26.8-34.4,53.6-51,80.7c-0.5,0.9,5.8,5.9,8.9,9c-6.3,2.7-15.3,3.7-18.4,8.4
	c-10,15.6-18,32.4-25.9,49.2c-0.5,1.1,6,5.6,9.2,8.5c-6.3,6.8-28.5,5.2-13.1,24c-21.7,11.3-47.1,101.8-37.9,139.1
	c2-3.8,3.9-6.3,4.8-9.1c9.8-30.1,18.8-60.5,29.2-90.3c6.2-17.7,13.7-35.2,22.4-51.8c4.8-9.1,3.3-11.4-5.9-11.6
	c4.9-2.9,11.9-4.5,14.4-8.8c9.6-16.5,17.8-33.8,26.1-51.1C588.9,812.2,584.9,809.1,583,807z M328.2,1144.4c-0.1-5.2,1-14.8-0.3-15.1
	c-27.2-6.8-53.4-28.2-82.8-7.1c2.4-4.1,4.8-8.2,9.2-15.7c-42.1-7.2-81.4-13.9-120.6-20.6c-0.7,2.8-1.4,5.7-2.1,8.5
	c26.2,7.9,52.2,16.5,78.6,23.5c11.3,3,23.5,2.8,35.3,4c-6.1,13.7,4.7,11.3,11.7,11.7c3.6,0.2,9-3.3,10.6-1.8
	c17.4,15.6,37,19.5,59.1,13c-6.5,4.7-10.6,10,1.3,11.6c6,0.8,12.4-2,18.7-3.2c-2.3,11.3-2.3,11.3,17.4,5.3
	c0.7,11.5,0.7,11.5,26.3,10.5c-1,2.4-2.7,6.3-2.6,6.3c39.9,19.1,79.8,38,119.8,56.9c1.8-1.9,3.5-3.8,5.3-5.7c-6-3.7-12-7.3-18-11
	c-34.7-21.3-69.3-42.7-104-63.9c-12.5-7.6-25.4-9-38.3-0.6c1-3.9,4.1-9.7,2.7-11.4c-2.4-2.7-8.3-4.3-11.9-3.3
	C338,1137.5,333.2,1141.5,328.2,1144.4z M380.9,514.8c14.7-20.4,3.2-43.7,6.7-65.5c3-18.3,2-37.2,2-55.9c0-21.7-0.8-43.4-1.3-67.5
	c-5,3-5.9,3.2-6.1,3.6c-22,60.5-24.2,122.7-16.4,185.8c0.3,2.6,5,4.7,7.6,7c-0.5,11-3.4,22.6-0.9,32.9c6.8,28.2,15.9,55.8,25.2,87.4
	c4.4-5.9,5.1-6.5,5.1-7c-1.6-34.5-16.9-67.2-13-102.7C390.4,527.4,384,520.9,380.9,514.8z M426.9,1316.2c27,2.5,54.1,4.9,79.2,7.2
	c-78.1-47.3-217.1-57.6-266.2-17.6c34.3,0,63.9-1.4,93.4,0.4c31.4,1.9,62.6,6.7,94,10.3c-12.2,0.2-24.3,0.6-36.5,0.5
	c-15.1-0.1-31.7-4.8-39.9,15c15.2,2.7,29.5,4.5,43.5,7.9c16.7,4,30.9,0.5,48.1-12.8C436.3,1322.7,431.6,1319.4,426.9,1316.2z
	 M731.8,857.5c-80,35.7-173,239.8-143.6,311.1C612.9,1054.5,667.9,956.1,731.8,857.5z M385.1,1007.8
	c-61.5-82.2-126-161.5-217.7-212.6C225.4,880.9,304,945.5,385.1,1007.8z M149.6,1078.7c112.6,16,218.7,43.2,315.7,99.2
	C400,1101.1,218.5,1043,149.6,1078.7z M464.8,676c1.9,1.4,3.8,2.8,5.7,4.1c16.6-23,33.3-46.1,49.9-69.1
	c13.1-17.6,29.8-33.1,45.8-49.4c1.2-1.2-2.3-7-2.3-6.9c11.9-9.8,25.2-18.7,35.8-30.1c26.6-28.3,52.1-57.6,77.9-86.7
	c3.9-4.4,6.7-9.7,10-14.5c-1.5-1.1-3.1-2.3-4.6-3.4C595.4,492.7,513.4,570.1,464.8,676z M248.1,610.4c-1.5,1.4-3,2.7-4.5,4.1
	c55.4,81.6,110.8,163.2,169.2,249.2c-16-55-36.8-102.3-68.8-143.3C314.1,682.1,280.2,646.9,248.1,610.4z M242.3,673.7
	c37.3,76.9,100.2,127,150.3,187.4c-3.5-11.6-9.1-21.6-15.2-31.2c-20.6-32.2-40.9-64.6-62.4-96.2c-6.2-9.1-21.1-14.4-23.3-23.5
	C285.8,685.6,270.2,677.4,242.3,673.7z M491.1,424.8c19-46.3,35.2-94.8,58.4-139.7c23-44.5,53-85.4,79.5-127.2
	C553.2,209.8,488.3,335.3,491.1,424.8z M356.9,380.8c-44.8,69.6-23,223.6,40.5,279.6C355.7,569,341.4,477.1,356.9,380.8z M601,731.6
	c-78.9,58.9-106.2,142.3-112.2,235.7C513.5,882.7,554.4,805.8,601,731.6z M619.5,1479.2c-58.9-23.9-190.9,4.8-212.1,46.8
	C478.2,1510.4,550.6,1494.4,619.5,1479.2z M769.2,1157.2c-52.5,35-88.1,166.5-58.4,213.2C714.6,1294.2,748.1,1227.6,769.2,1157.2z
	 M654.6,428.7c-71,22.2-154.6,113.2-161.4,170.9c24.5-28.7,48.2-58.7,74.3-86.4C594,485.1,622.9,459.3,654.6,428.7z M394.5,1036.3
	c-1.9-4.8-2.1-6.4-2.9-7.1c-43.8-37.3-87.2-75.2-132-111.3c-6.9-5.6-20-3.6-30.2-5.1c-0.7,3.1-1.4,6.1-2.1,9.2
	c7.8,3.2,15.6,6.4,21.2,8.7c1.3,4.6,1,11.2,4.2,14.4C292.4,984.8,341.6,1010.3,394.5,1036.3z M548.8,303.9
	c22.1,2.4,21.7,2.2,30.3-15.3c3.8-7.7,14-9.6,12.3-23.4c-1-8.2,14.8-18.3,22.7-27.8c1.8-2.2,2.1-5.7,3.1-8.6
	c-1.1-1.8-2.2-3.6-3.2-5.5c-8.7,4.1-21.2,5.9-25.3,12.7c-10.6,17.4-29.3,32-26.4,55.6C558.2,295.4,553.5,299.7,548.8,303.9z
	 M665.9,1610.1c41-7.1,81.9-14.2,122.9-21.3C744.8,1576.1,703.1,1578.8,665.9,1610.1z M906.8,1396c-36.3,19.8-62.1,74.1-56.2,113.1
	C868.9,1472.4,887,1435.9,906.8,1396z M750.5,864.4c-2.4-1.5-4.8-2.9-7.2-4.4c-19.9,31.2-39.9,62.4-59.8,93.6
	c1.5,1.8,2.9,3.6,4.4,5.3c6.5-2.7,14.5-3.9,19-8.5c3.9-4,2.8-12.5,5.8-18C724.9,909.6,737.8,887.1,750.5,864.4z M698.6,960.6
	c-7.9,2.7-18,2.9-20.9,7.6c-11.3,18.3-20.3,38-30.2,57.3c2,1.9,4.1,3.8,6.1,5.7c9.1-7.3,21-13,26.7-22.4
	C688.3,995.6,691.7,979.7,698.6,960.6z M670,143.8c-2-1.6-4.1-3.1-6.1-4.7c-22.1,25.3-46.5,48.8-62.4,81.4
	c18.6,4.5,22-3.8,28.3-16.7C640.1,182.4,656.3,163.7,670,143.8z M566.6,1366.6c-26.3-21.4-57.6-30-89.6-35.7
	c-6.3-1.1-14.1,6.1-22.6,10.1C494.6,1350.1,530.6,1358.3,566.6,1366.6z M730.5,1425.8c3.4-31.9,6.5-61.9,9.6-91.2
	C718,1341.2,711.1,1390.4,730.5,1425.8z M679,1509.7c-33-24.2-79.8-20.6-89.7,0C618.4,1509.7,648.7,1509.7,679,1509.7z M215.5,598.2
	c-1.4,0.9-2.8,1.7-4.3,2.6c6.7,15.1,14.5,29.8,20,45.4c8.5,23.9,8.9,24.9,35.7,25.1C249.9,647.1,232.7,622.6,215.5,598.2z
	 M507.8,415.3c2,0.8,4,1.6,6,2.4c13.9-29.5,27.8-59,44.2-93.5c-10.5,7-21.5,10.2-24.3,16.9C523.5,365.2,516.1,390.5,507.8,415.3z
	 M859.7,1556.9c13.8-38.2,25.8-71.2,37.7-104.2c-2.3-0.8-4.6-1.6-6.9-2.4C873.4,1481.8,858,1513.9,859.7,1556.9z M723.9,1610.5
	c0.2,2.1,0.3,4.3,0.5,6.4c32-2.9,64-5.8,96-8.6C787.7,1599.2,755.6,1600.2,723.9,1610.5z M247.3,1316c36.1,14.1,68.5,14.3,75.4,0
	C298.3,1316,274.9,1316,247.3,1316z M169.4,842.9c6.8,15.2,13.5,27.6,34.8,20.5C194.5,851.8,190.9,834.3,169.4,842.9z M208.6,889.6
	c6.2,22.7,18.5,23.6,32.9,16.3c0.6-2.1,1.2-4.2,1.8-6.2C231.7,896.3,220.1,892.9,208.6,889.6z"/>
<path class="st0" d="M1853.2,670.5c-40.3-47.3-80.5-94.8-121-141.9c-25.3-29.5-51.3-58.5-76.6-88c-7.1-8.3-14.1-17.2-19.2-26.8
	c-3.2-6.1-3-14-4.3-21.1c6.5,1.4,13.8,1.4,19.4,4.5c37.6,20.4,76.4,38.9,111.7,62.8c58.1,39.2,85.7,100.6,109.1,163.9
	c1.9,5.2,3.9,10.3,5.9,15.4c1.9-0.4,3.7-0.9,5.6-1.3c-4.4-23.5-8.5-47.1-13.3-70.5c-17.6-85.5-55.1-162.8-99.1-237.3
	c-33-55.8-65.2-112-97.4-168.3c-5.8-10.1-11-20.7-14.8-31.6c-2.1-5.9-0.6-13-0.8-19.6c5.9,1.7,12.7,1.9,17.5,5.2
	c111.7,75.9,181.3,178.4,186.1,315.5c2.1,61.2,19.2,118.6,27.8,177.9c4.2,29.2,8.1,58.5,12.6,91.2c20.7-21.9,24.7-46.9,29.5-70.8
	c16.6-82.1,10.2-165.4,11.7-248.2c0.3-19.4,1.9-38.8,4.1-58.1c0.9-7.7,4.9-15,8.3-24.7c5.3,4.3,8.6,5.7,9.9,8.2
	c29,56.7,56.8,113.6,55.2,179.9c-1.2,47-18.8,89.3-35.6,131.8c-2.6,6.6-10.2,11.2-15.6,16.7c6.7-14.4,15.3-28.2,19.9-43.2
	c18-59.2,33.8-118.9,10.6-180.7c-3.6-9.5-7.2-18.9-10.8-28.3c-3.9,3.9-4,6.4-3.9,9c1.1,36.2,4.8,72.6,2.7,108.7
	c-2.3,38.5-7.4,77.5-30,111.1c4.2-18.1,9.5-35.9,12.3-54.2c1.7-11.5-0.4-23.5-0.8-35.3c2.9-5.1,8.1-10.2,8.2-15.4
	c0.8-32.8,2.3-65.8-0.2-98.4c-2.1-27.1-9.4-53.8-14.4-80.7c-2.3,0.1-4.6,0.3-6.9,0.4c-0.9,6.5-2.6,13.1-2.7,19.6
	c-0.6,44.1,3.7,88.2,0.6,132.5c-0.8,11,4.8,22.5,7.5,33.8c-2.3,1.6-6.4,3-6.7,4.9c-2.7,21.1-4.5,42.4-7.2,63.5
	c-2.7,20.3-6.2,40.4-9.4,60.6c1.3,0.3,2.6,0.7,3.8,1c5.4-10.9,10.7-21.8,16.1-32.7c0.8,20.7-9,36.1-22.7,50.7
	c-5.9,6.2-8,15.9-11.8,24c2.2,1.1,4.4,2.2,6.6,3.3c13.1-18.1,26.3-36.3,39.4-54.4c-3,9-3.9,19.6-9.4,26.7
	c-13.5,17.2-30.2,32-43.4,49.4c-7,9.3-12.8,21.8-13.5,33.2c-3.3,54.3-4.7,108.8-6.6,163.2c0,0.9,1.3,1.9,4.4,6.3
	c24.2-71,46-140.9,89.4-200.6c43.2-59.3,93.9-110.7,161.1-153.3c0,12.6,2.1,19.7-0.3,24.5c-28,53.9-53.6,109.3-86.2,160.3
	c-22.8,35.7-56,64.6-83.2,97.6c-23.5,28.5-45.5,58.1-67.4,87.9c-25.3,34.4-34.8,74.8-42.2,115.9c-1.8,10-4.2,19.9-6.6,31
	c3.4-0.5,5.7-0.1,6.6-1.1c44.4-49,90.5-96.5,132.3-147.5c51.3-62.5,111.7-113.4,180.4-155.1c4.1-2.5,9-3.8,16-6.7
	c4.5,28.5-1.4,52.3-14.4,74.4c-52.5,89.6-128.5,152.7-220.7,198.8c-31.6,15.8-61.8,35.7-89.7,57.4c-13.8,10.7-22.9,28.9-30.9,45.3
	c-10.5,21.7-17.7,45-27.8,71.6c29.4-25.6,53.9-49.6,81-70.1c72.3-54.8,153.1-87.4,245.2-84.3c27.7,1,55.2,7.2,82.6,11.8
	c5,0.9,9.4,5.8,14,8.8c-3.8,4.8-6.5,11.9-11.4,13.9c-30.6,12.3-61.5,24.1-92.7,34.8c-71.7,24.6-144.3,46.6-215.2,73.5
	c-35.4,13.4-68.7,33.5-101.2,53.4c-38.6,23.7-68.6,63.2-94.2,118c14.5-9.5,24.7-16.4,35.1-23.1c76.8-49.5,159.6-80.4,252.2-79.8
	c39.6,0.2,76.9,11.1,112.7,27.2c4.5,2,10.1,8.2,9.9,12.2c-0.2,3.8-6.8,9.7-11.4,10.5c-45.7,8.2-91.4,16.8-137.4,23
	c-94.1,12.7-190.5,15.4-276.4,63c-15.4,8.5-29,21.4-41.6,34c-17.7,17.8-33.7,37.2-48.6,59.5c7.5-2.8,15-5.6,22.4-8.6
	c65.9-26.4,133.4-37.5,203.8-22.6c43.7,9.3,81.1,30.3,112.9,61.5c2.8,2.7,5.2,5.8,7.3,9c1,1.5,0.9,3.6,2.2,9.3
	c-9.4,1.6-18.5,5.2-27.2,4.3c-39.3-4.3-78.4-10-117.6-14.9c-53.9-6.8-107.6-15.9-161.6-19.1c-49.9-2.9-94.4,13.7-128.6,58.9
	c12.5-1.6,22.8-2.4,32.8-4.4c50.9-10.1,94.8,4.8,133.5,37.5c3.9,3.3,5.3,9.5,7.8,14.3c-5,2.3-9.8,6.5-14.9,6.7
	c-23.2,0.9-48.6,7.6-61.6-24.2c-1.1,1.6-2.1,3.1-3.2,4.7c1.2,4.3,2.3,8.5,3.7,13.7c-3.1,0.9-5.5,2.3-7.8,2.1
	c-21.9-2.2-43.8-4.7-65.7-7.2c-44.5-5-85.3,1.7-124,27.7c-37.5,25.1-78.8,44.7-118.6,66.4c-5.3,2.9-11.5,4-17.3,5.9
	c-1-1.8-2-3.6-2.9-5.4c5.5-3.6,10.9-7.5,16.6-10.8c46.5-27,92.9-54.1,139.6-80.6c15-8.5,19.4-20.8,19.3-37.2
	c-0.1-39.5-15.8-74.4-30.1-109.9c-11.3-28.2-21.7-56.8-31.1-85.7c-2-6.1,2-14.1,3.3-21.3c6.4,2.3,13.6,3.3,19,7
	c58.8,39.5,84.6,110.3,66.6,181.3c-2.5,9.9-5.2,19.8-8.8,33.3c7-3.9,11.4-5.7,15-8.5c11.7-9.3,22.2-20.2,34.6-28.3
	c59.8-39.4,69-98,57.7-161.2c-10.7-59.9-27.8-118.5-41-178c-5.2-23.3-8-47.2-10.5-71c-0.6-6.1,3.8-12.7,5.9-19.1
	c5.6,2.5,12.2,3.9,16.7,7.8c51.6,44.3,76.9,101.5,81,168.6c3.4,55.4-7.6,108.3-29.3,159.1c-1.5,3.6-2.7,7.3-3.8,11
	c-0.3,0.9,0.8,2.2,2.5,6.2c18.8-21,37.7-40.2,54.5-61.2c21.5-26.8,40.8-55.3,62-82.3c11.4-14.5,13.2-29.7,11.1-47.3
	c-9.8-82.4-41.8-157.5-75.3-232.1c-28.9-64.4-58.8-128.5-88.2-192.7c-1.4-2.9-3.4-5.9-3.6-9c-0.5-8.5-0.1-17.1,0-25.7
	c7.6,2.5,16,3.8,22.6,7.8c88.6,54.2,131.4,138.3,153.7,235.9c14.5,63.3,17,127.1,10,191.4c-0.5,4.7-0.1,9.5,4.4,15.9
	c12.1-23.1,23-46.9,36.4-69.2c52.4-86.9,34.1-173.2-1.7-259.2c-14-33.5-29.9-66.1-44.7-99.2c-21.1-47.1-42.2-94.2-62.4-141.7
	c-2.5-6,0.1-14.1,0.4-21.3c6.2,2.2,13.3,3.2,18.5,6.9c32.3,23.2,61.2,49.8,80.7,85.2c-18.6-17.8-37.2-35.7-55.8-53.5
	c-1.5,1.2-3,2.3-4.4,3.5c47.9,72.7,90.9,147.8,115.3,232.4c-2.7-32.4-6.2-64.7-16.1-94.9c-9.9-30.4-26.1-58.8-39.6-88.1
	c50.1,47.2,58.2,110.5,66.6,173.7c2,15.4,1.6,31.2,2.3,46.8c2.9,0.1,5.8,0.1,8.7,0.2c5.8-60.3,12.2-120.5,17.1-180.8
	c2-24.5,4.4-50-0.2-73.7c-4.1-21.3-17.4-40.8-27.2-60.9c-2.8-5.7-7.7-10.3-11.7-15.5c11.3,9.8,22.7,19.5,36.4,31.4
	c-1.9-8.6-2.1-15.8-5.2-21.5c-5.7-10.7-13.1-20.4-19.5-30.7c-13.8-21.8-27.3-43.8-41.2-65.6c-7.6-11.9-17.7-15.2-33.1-7.9
	c12.6,11.3,23.6,21.2,34.6,31.1c0.5,0.4,0.7,1,1.1,1.6c7.5,13.1,15.7,25.9,22.2,39.4C1851.3,654.7,1851.6,663,1853.2,670.5z
	 M1694,1052.3c-8.7-1.2-13.5,2.1-8,10.3c3.6,5.4,10.4,8.7,15.8,12.9c-1.2,5.1-4.2,10.6-3.2,15.4c3.8,19.5,20.2,33.1,22.8,54.5
	c2.6,22,12.6,43.1,19.5,64.6c1.7,5.4,4,10.6,6,15.9c1.6-0.6,3.1-1.1,4.7-1.7c-2.2-39.9-11.1-78.5-23.3-116.7
	c-4.8-15.1-11.1-27.1-26.8-32.2c3.9-1,7.8-2,11.8-3c-1.2-3.5-1.4-8-3.8-10.2c-4.6-4.1-10.4-6.8-15.7-10c2.7-3,5.4-5.9,8.1-8.9
	c-8.4-5-16.8-10.1-25.3-15.1c-1.5,2.3-3,4.5-4.5,6.8C1679.3,1040.6,1686.7,1046.4,1694,1052.3z M1766.3,288.3c5.1,0,10.2,0,16.5,0
	c-20.1-52.9-33.3-66.4-59.1-58.4c6,6.8,13,12,15.9,18.9c4.4,10.2,19.2,34.7,27.1,39.7c-3.5,14.8,5.6,21,26.6,12.6
	C1784.4,296.8,1775.4,292.6,1766.3,288.3z M1775.3,1507.5c-11.9-4.3-23.6-10.9-35.8-12.5c-26.9-3.6-53.5-1.2-82.6,10.9
	c42.7,3,80.8,5.7,119.1,8.4c-0.1-0.9-0.5-4-0.9-7.2c18.5,22.8,45.8,17.1,70.1,22.3c-7.6-17.8-51.7-35.4-68.4-27.3
	C1775.6,1502.6,1775.7,1505.6,1775.3,1507.5z M1758.1,804.8c3.3-2.4,9.6-6.7,9.4-7c-16.3-27.1-33.1-53.8-49.8-80.6
	c-2.6,1.4-5.1,2.9-7.7,4.3c13.8,28.6,27.7,57.2,41.5,85.7c10,42.6,27.2,63.3,55.5,63.7C1792.5,846.4,1789.3,815.7,1758.1,804.8z
	 M2014.1,1143.5c-23-11.8-24-11.7-29.9,3.4c-8.8,0.7-19-1.3-26.1,2.5c-34.5,18.7-68.4,38.6-102.1,58.9c-7.8,4.7-13.7,12.4-20.5,18.7
	c28.4-8.9,53.8-22.8,80.7-32.6c13.7-5,19.9-25.4,40-15.6c-2.6-5.4-3.9-8.1-5.4-11.1c11-2.2,26,11.8,29-9.5
	c5.7,1.6,11.5,3.3,20.6,5.8c-2.8-6.8-4.2-10.2-5.5-13.5c6.6,2,13.2,6,19.7,5.7c11-0.5,8.9-6.1,2.4-11.5c18.9,11.5,35-6.1,53.1-5.1
	c6.1,0.3,12.4-4.2,18.8-5.5c8.3-1.7,14-4,8.3-13.7c7.5,1.3,15.4,4.9,22.3,3.4c14.2-3,27.8-8.6,41.6-13.3c16.7-5.7,33.4-11.6,50-17.3
	c-0.8-2.6-1.7-5.3-2.5-7.9c-37.9,7.1-75.8,14.1-113.5,21.7c-2.8,0.6-4.7,5.2-7,8c-25.2,4.8-50.4,9.5-75.4,15
	C2012.1,1130,2013.6,1138.7,2014.1,1143.5z M1799,892.4c2.5,9.6,4.8,19.4,7.7,28.9c3.1,10.2,7,20.2,10.2,30.4
	c9,28.1,17.8,56.3,26.6,84.4c2.3-0.5,4.6-1,6.8-1.5c-4.3-26.3-7.2-53-13.5-78.9c-6-24.7-7.2-53.6-38.3-63.7c5.1,0,10.2,0,15.2,0
	c0.6-2.3,1.2-4.5,1.8-6.8c-9.6-4.3-19.2-8.7-28.9-13c-1.1,1.8-2.2,3.5-3.3,5.3C1788.6,882.6,1793.8,887.5,1799,892.4z
	 M1755.7,1167.1c20.6-85.6-82.3-304.8-142.7-305C1676.2,956.7,1729.1,1055.5,1755.7,1167.1z M1955.3,1005.2c1.4,1.3,2.7,2.5,4.1,3.8
	c79.3-63.4,157.3-128.1,215.1-213.9c-19.1,9.7-37,20.9-52.9,34.4c-14.8,12.6-26.8,28.2-41.1,41.4c-14.2,13-31,23.2-44.3,37
	c-14.7,15.3-26.5,33.4-40,49.9C1982.8,973.8,1968.9,989.4,1955.3,1005.2z M1875.2,1180.8c98.8-59.7,205.4-85.3,318.3-102.5
	C2117.7,1044.2,1928.6,1105.6,1875.2,1180.8z M2101.5,611c-68.9,44.4-172.5,199.5-167.9,246.8C1988.4,777.3,2044.7,694.6,2101.5,611
	z M2098.8,1302.3c-63.5-37-216-21.6-267,25.6C1920.2,1303.2,2009.7,1306.3,2098.8,1302.3z M2098,678c-1.6-2-3.1-3.9-4.7-5.9
	c-10.5,5.2-23.2,8.3-31.2,16.2c-12.5,12.2-22.3,27.3-32.3,41.9c-18.6,27.2-36.7,54.7-54.5,82.4c-9.9,15.4-18.7,31.4-28,47.1
	c1.7,1.1,3.4,2.3,5.1,3.4C1999.9,800.5,2063.2,750.5,2098,678z M1712.2,160.3c65.6,78.6,110.3,168,137.1,266.6
	C1838.2,307.3,1782.2,198.8,1712.2,160.3z M1723.2,1479.6c67.2,14.7,141,30.9,213.1,46.7C1893,1472.5,1780.4,1460,1723.2,1479.6z
	 M1574.7,1156.1c20.9,69.4,42,139.7,61.4,204.2C1653.5,1305.8,1627.3,1189.1,1574.7,1156.1z M1848.3,594.6
	c-15-69.5-95.7-145.9-151-161.1C1746.9,486.4,1799.1,542.1,1848.3,594.6z M2093,930.4c6.1-2.3,13.8-5.2,21.5-8
	c-13.7-12.9-24.2-11.5-35.6-1.6c-35.1,30.5-70.9,60.2-106.4,90.3c-8,6.8-15.8,13.7-23.7,20.6c53-21,101.6-48,142.1-87.6
	C2093.6,941.4,2092.4,934.8,2093,930.4z M1659.3,420c-1.2,1.2-2.3,2.3-3.5,3.5c2,3.3,3.5,6.9,6,9.7c26.9,30.8,53.5,62,81.3,92.1
	c10.6,11.4,24.2,20.1,35.2,29.1c-0.2,0.4-3.9,5.6-3,6.6c8.5,9.1,18.7,11.9,33.2,5.1C1763.6,510.2,1712.8,463.7,1659.3,420z
	 M1675.4,1609.7c-33.6-30.1-96.9-38.1-121.2-20.3C1593.5,1595.9,1634.4,1602.8,1675.4,1609.7z M1438,1399
	c17.8,36.8,35.7,73.7,53.5,110.5C1491.2,1464.2,1478.5,1424.8,1438,1399z M1661.8,958.6c-22.6-36.1-42.3-67.5-62-99
	c-2.2,1.2-4.5,2.5-6.7,3.7c7.5,14.6,14.9,29.2,22.5,43.7c5.1,9.9,14.3,19.5,14.8,29.6C1631.5,955,1641.9,956.6,1661.8,958.6z
	 M1680,139c-1.6,1.1-3.2,2.1-4.8,3.2c1.8,4.4,3,9.3,5.6,13.1c11.3,16.5,28.1,31.4,33.3,49.6c5.1,18.2,11.8,18.5,31,14.7
	C1721.7,190.7,1700.9,164.8,1680,139z M1656.6,979c-10.6,17.6,10.2,45.4,35.2,47.1c-5.9-37.9-28.3-65.8-52.6-60
	C1646.3,971.4,1651.5,975.3,1656.6,979z M1777.5,1366.1c35.7-8.2,71.5-16.4,111.1-25.5c-8.8-3.9-16.8-11-23.4-9.8
	C1833.6,1336.4,1802.8,1345.4,1777.5,1366.1z M1481.2,1549.8c2.4-46.9-20.2-86.6-47.6-124.7
	C1449.5,1466.7,1465.3,1508.2,1481.2,1549.8z M1611.6,1426.9c19.5-32.9,12.4-87.6-8.4-91.1
	C1605.9,1364.8,1608.6,1394.2,1611.6,1426.9z M1828.2,417c1-47.8-19.5-85.4-40.9-87.2c6,13.1,12.3,27.1,18.8,41
	C1813.4,386.2,1820.9,401.6,1828.2,417z M1609.6,1312.9c2.6-30.9-11.4-60.7-32-66.9C1587.8,1268.8,1577.7,1299.9,1609.6,1312.9z
	 M1987.5,1331.1c-11.8-13.9-60.7-14.7-80.9-4.2c16.1,17.6,24.8,18.3,34.3,2.9c11.6,2.4,24.6,17,35.3-4
	C1978.8,1327,1983.2,1329,1987.5,1331.1z M2072.5,676.1c13.1-4.7,27.1-5.4,30.6-11.8c11.5-20.9,19.1-44,28.2-66.2
	c-1.1-0.6-2.2-1.2-3.3-1.8C2110.5,621.5,2093,646.7,2072.5,676.1z M1576.5,1222.2c2.4-1.3,4.9-2.6,7.3-3.9
	c-7.1-18.3-14.2-36.6-21.3-55c-1.6,0.7-3.3,1.4-4.9,2.1C1560.8,1185.6,1562.7,1206.2,1576.5,1222.2z M2088.7,1313.6
	c-22,1.2-44.1,2.4-67.7,3.7C2030.5,1329.5,2063.9,1328.5,2088.7,1313.6z M1926.4,1537.6c-18.1-5-36.1-10-55.7-15.4
	C1876.3,1538.9,1898.8,1545.6,1926.4,1537.6z M1620.2,1618.4c0.4-2.9,0.9-5.8,1.3-8.8c-18.4-2.8-36.8-5.6-55.1-8.4
	c-0.5,3-0.9,6-1.4,9C1583.4,1613,1601.8,1615.7,1620.2,1618.4z M2173.1,842c-22.1-5.3-25.4,10.5-34.8,22.1
	C2159.3,869.6,2167,859.2,2173.1,842z M2138.3,888.1c-16,4.8-27.5,8.3-39.1,11.7c0.7,2.2,1.4,4.4,2,6.6
	C2115.6,912.7,2127.9,911.8,2138.3,888.1z M2165.2,831.6c18.8,1.1,23.3-5.2,21.5-30.5C2178.5,812.7,2172.3,821.5,2165.2,831.6z"/>
<path class="st1" d="M1797.3,483.3c13.5,29.3,29.7,57.6,39.6,88.1c9.8,30.2,13.3,62.5,16.1,94.9c-24.4-84.7-67.5-159.7-115.3-232.4
	c1.5-1.2,3-2.3,4.4-3.5c18.6,17.8,37.2,35.7,55.8,53.5C1797.9,483.9,1797.3,483.3,1797.3,483.3z"/>
<path class="st1" d="M731.8,856.8c-64,98.6-119,197-143.6,311.1C558.9,1096.6,651.8,892.5,731.8,856.8z"/>
<path class="st1" d="M385.1,1007.1C304,944.8,225.4,880.2,167.4,794.5C259.1,845.6,323.6,924.9,385.1,1007.1z"/>
<path class="st1" d="M149.6,1078c68.9-35.7,250.4,22.3,315.7,99.2C368.3,1121.3,262.2,1094,149.6,1078z"/>
<path class="st1" d="M464.8,675.3c48.6-105.9,130.6-183.4,218.2-256c1.5,1.1,3.1,2.3,4.6,3.4c-3.3,4.9-6.2,10.1-10,14.5
	c-25.8,29.1-51.3,58.4-77.9,86.7c-10.7,11.3-23.9,20.2-35.8,30.1c0-0.1,3.5,5.7,2.3,6.9c-16,16.2-32.7,31.8-45.8,49.4
	c-16.6,23-33.3,46.1-49.9,69.1C468.6,678.1,466.7,676.7,464.8,675.3z"/>
<path class="st1" d="M427.3,1315.7c-31.3-3.6-62.5-8.4-93.9-10.3c-29.5-1.8-59.1-0.4-93.4-0.4c49.1-40,188.1-29.7,266.2,17.6
	c-25.1-2.3-52.2-4.8-79.2-7.2L427.3,1315.7z"/>
<path class="st1" d="M248.1,609.7c32.1,36.5,65.9,71.7,95.9,110c32,40.9,52.8,88.3,68.8,143.3C354.4,777,299,695.4,243.6,613.8
	C245.1,612.4,246.6,611,248.1,609.7z"/>
<path class="st1" d="M242.3,673c27.9,3.7,43.5,11.8,49.3,36.4c2.2,9.1,17.1,14.5,23.3,23.5c21.5,31.6,41.8,64,62.4,96.2
	c6.2,9.6,11.8,19.7,15.2,31.2C342.4,800,279.6,749.9,242.3,673z"/>
<path class="st1" d="M491.1,424.1c-2.8-89.6,62.1-215,137.9-266.9c-26.5,41.7-56.5,82.6-79.5,127.2
	C526.3,329.3,510.1,377.8,491.1,424.1z"/>
<path class="st1" d="M356.9,380.1c-15.5,96.3-1.1,188.2,40.5,279.6C333.9,603.7,312.1,449.7,356.9,380.1z"/>
<path class="st1" d="M601,730.9c-46.5,74.2-87.5,151.1-112.2,235.7C494.8,873.2,522.1,789.8,601,730.9z"/>
<path class="st1" d="M619.5,1478.5c-68.9,15.2-141.3,31.2-212.1,46.8C428.5,1483.3,560.6,1454.7,619.5,1478.5z"/>
<path class="st1" d="M769.2,1156.5c-21.1,70.4-54.6,137-58.4,213.2C681.1,1323,716.7,1191.6,769.2,1156.5z"/>
<path class="st1" d="M373.3,521.8c-2.6-2.3-7.3-4.4-7.6-7c-7.7-63.1-5.6-125.3,16.4-185.8c0.2-0.5,1.1-0.7,6.1-3.6
	c0.5,24.1,1.3,45.8,1.3,67.5c0,18.7,1,37.6-2,55.9c-3.5,21.8,8,45.1-6.7,65.5C378.4,516.6,375.9,519.2,373.3,521.8z"/>
<path class="st1" d="M654.6,428c-31.7,30.6-60.6,56.4-87.1,84.5c-26.1,27.7-49.8,57.7-74.3,86.4C500,541.2,583.6,450.2,654.6,428z"
	/>
<path class="st1" d="M394.5,1035.6c-52.9-26.1-102-51.5-141.9-91.3c-3.2-3.2-3-9.7-4.2-14.4c-5.6-2.3-13.4-5.5-21.2-8.7
	c0.7-3.1,1.4-6.1,2.1-9.2c10.2,1.5,23.3-0.5,30.2,5.1c44.8,36.2,88.2,74,132,111.3C392.4,1029.3,392.5,1030.8,394.5,1035.6z"/>
<path class="st1" d="M352.6,1150.1c12.9-8.4,25.8-7,38.3,0.6c34.7,21.2,69.3,42.6,104,63.9c6,3.7,12,7.3,18,11
	c-1.8,1.9-3.5,3.8-5.3,5.7c-40-18.9-80-37.8-119.8-56.9c-0.1-0.1,1.6-4,2.6-6.3c-25.6,1-25.6,1-26.3-10.5
	c-19.7,6.1-19.7,6.1-17.4-5.3C348.7,1151.6,350.7,1150.9,352.6,1150.1z"/>
<path class="st1" d="M548,872.4c9.2,0.2,10.7,2.5,5.9,11.6c-8.7,16.6-16.2,34.1-22.4,51.8c-10.5,29.9-19.5,60.2-29.2,90.3
	c-0.9,2.8-2.8,5.3-4.8,9.1c-9.2-37.3,16.2-127.8,37.9-139.1c-15.4-18.8,6.8-17.1,13.1-24C548.4,872.1,548,872.4,548,872.4z"/>
<path class="st1" d="M641.4,1074.8c-1.5,11.1-1.5,22.7-4.9,33.2c-10.4,32.1-22.1,63.7-33.2,95.6c-2.5,7.1-4.7,14.4-7,21.6
	c-1.6-0.2-3.2-0.4-4.8-0.6c1.8-17.1,2.2-34.4,5.6-51.1c4.6-22.7,11.7-44.9,17.2-67.4c3.8-15.5,11.5-26.8,27.4-31.4L641.4,1074.8z"/>
<path class="st1" d="M245.4,1121.1c-11.8-1.2-24-1-35.3-4c-26.4-7-52.4-15.5-78.6-23.5c0.7-2.8,1.4-5.7,2.1-8.5
	c39.3,6.7,78.5,13.4,120.6,20.6c-4.4,7.5-6.8,11.6-9.2,15.7L245.4,1121.1z"/>
<path class="st1" d="M245,1121.5c29.5-21.1,55.7,0.3,82.8,7.1c1.3,0.3,0.3,9.9,0.4,15.1l-1.5,0.3c-22.1,6.5-41.7,2.6-59.1-13
	c-1.6-1.5-7,2-10.6,1.8c-7-0.4-17.7,2.1-11.6-11.7C245.4,1121.1,245,1121.5,245,1121.5z"/>
<path class="st1" d="M548.8,303.2c4.7-4.3,9.5-8.6,13.6-12.2c-3-23.6,15.8-38.2,26.4-55.6c4.2-6.8,16.6-8.6,25.3-12.7
	c1.1,1.8,2.2,3.6,3.2,5.5c-1,2.9-1.3,6.4-3.1,8.6c-7.9,9.5-23.7,19.6-22.7,27.8c1.7,13.8-8.6,15.8-12.3,23.4
	C570.5,305.5,570.8,305.7,548.8,303.2z"/>
<path class="st1" d="M373.3,521.8c2.5-2.6,5.1-5.1,7.6-7.7c3.1,6.1,9.4,12.7,8.8,18.4c-3.9,35.4,11.4,68.1,13,102.7
	c0,0.5-0.7,1-5.1,7c-9.3-31.6-18.4-59.2-25.2-87.4C369.9,544.4,372.9,532.8,373.3,521.8z"/>
<path class="st1" d="M665.9,1609.4c37.2-31.3,78.9-34,122.9-21.3C747.8,1595.2,706.9,1602.3,665.9,1609.4z"/>
<path class="st1" d="M906.8,1395.3c-19.8,39.9-38,76.4-56.2,113.1C844.7,1469.4,870.5,1415.1,906.8,1395.3z"/>
<path class="st1" d="M426.9,1315.5c4.7,3.2,9.4,6.5,15.7,10.9c-17.2,13.2-31.4,16.8-48.1,12.8c-14-3.4-28.3-5.2-43.5-7.9
	c8.1-19.8,24.8-15.1,39.9-15c12.2,0.1,24.3-0.3,36.5-0.5C427.3,1315.7,426.9,1315.5,426.9,1315.5z"/>
<path class="st1" d="M750.5,863.7c-12.7,22.6-25.7,45.1-37.9,68c-3,5.5-1.8,14-5.8,18c-4.5,4.6-12.5,5.8-19,8.5
	c-1.5-1.8-2.9-3.6-4.4-5.3c19.9-31.2,39.9-62.4,59.8-93.6C745.7,860.8,748.1,862.3,750.5,863.7z"/>
<path class="st1" d="M583,806.3c1.9,2.1,5.9,5.3,5.4,6.3c-8.2,17.3-16.5,34.6-26.1,51.1c-2.5,4.3-9.5,5.9-14.4,8.8l0.4-0.3
	c-3.3-2.9-9.8-7.4-9.2-8.5c7.9-16.8,15.9-33.6,25.9-49.2c3.1-4.8,12.1-5.7,18.4-8.4L583,806.3z"/>
<path class="st1" d="M698.6,959.9c-6.9,19.1-10.4,35-18.3,48.2c-5.7,9.4-17.5,15.1-26.7,22.4c-2-1.9-4.1-3.8-6.1-5.7
	c9.9-19.2,18.9-38.9,30.2-57.3C680.7,962.9,690.8,962.6,698.6,959.9z"/>
<path class="st1" d="M583.4,806c-3.1-3.1-9.4-8.2-8.9-9c16.6-27.2,33.8-53.9,51-80.7c2.2,1.2,4.3,2.4,6.5,3.6
	c-9.4,20.5-18,41.3-28.5,61.2c-5,9.4-13.5,16.9-20.5,25.3C583,806.3,583.4,806,583.4,806z"/>
<path class="st1" d="M670,143.1c-13.7,19.9-29.9,38.6-40.3,60.1c-6.2,12.8-9.7,21.2-28.3,16.7c15.9-32.6,40.3-56.2,62.4-81.4
	C666,140,668,141.5,670,143.1z"/>
<path class="st1" d="M566.6,1365.9c-36-8.2-72-16.5-112.2-25.6c8.5-4,16.3-11.2,22.6-10.1C509,1335.8,540.3,1344.5,566.6,1365.9z"/>
<path class="st1" d="M730.5,1425.1c-19.3-35.4-12.5-84.6,9.6-91.2C737,1363.2,733.8,1393.2,730.5,1425.1z"/>
<path class="st1" d="M754.1,1246.6c2.5-0.6,5-1.2,7.6-1.8c-3.7,54.4-4.8,57-32.3,67.6c7.4-23.9,6-48.3,25-65.9L754.1,1246.6z"/>
<path class="st1" d="M679,1509c-30.3,0-60.5,0-89.7,0C599.2,1488.4,646,1484.9,679,1509z"/>
<path class="st1" d="M498.7,1517.5c21.3-7.3,42.6-14.5,63.9-21.8c1.6,2.8,3.2,5.5,4.9,8.3c-6.8,5.9-12.8,14.6-20.7,17.2
	c-11.4,3.7-24.2,2.9-36.4,4c-0.9-2.6-1.9-5.3-2.8-7.9c-2.3,4.3-4.7,8.6-7,12.8c-1-0.7-2.1-1.5-3.1-2.2c0.5-3.6,1-7.2,1.6-10.8
	L498.7,1517.5z"/>
<path class="st1" d="M215.5,597.5c17.2,24.4,34.4,48.8,51.4,73c-26.8-0.1-27.2-1.1-35.7-25.1c-5.5-15.5-13.3-30.3-20-45.4
	C212.7,599.2,214.1,598.4,215.5,597.5z"/>
<path class="st1" d="M507.8,414.6c8.4-24.8,15.7-50.1,25.8-74.3c2.8-6.7,13.8-9.9,24.3-16.9c-16.3,34.6-30.2,64.1-44.2,93.5
	C511.8,416.2,509.8,415.4,507.8,414.6z"/>
<path class="st1" d="M859.7,1556.2c-1.7-43,13.6-75.1,30.8-106.6c2.3,0.8,4.6,1.6,6.9,2.4C885.5,1485,873.6,1518.1,859.7,1556.2z"/>
<path class="st1" d="M723.9,1609.8c31.7-10.3,63.8-11.3,96.4-2.3c-32,2.9-64,5.8-96,8.6C724.2,1614.1,724,1611.9,723.9,1609.8z"/>
<path class="st1" d="M754.4,1246.4c2.1-11.8,3.2-24,6.7-35.3c5.3-16.9,12.4-33.3,21.4-48.9c-7.2,28.9-1,62-28.4,84.4
	C754.1,1246.6,754.4,1246.4,754.4,1246.4z"/>
<path class="st1" d="M498.9,1517.2c-10.6,15.9-25.2,19.9-44,18.8c-12.2-0.7-24.8,5.4-37.2,8.4c-0.7-2.8-1.4-5.5-2-8.3
	c27.7-6.1,55.3-12.3,83-18.5C498.7,1517.5,498.9,1517.2,498.9,1517.2z"/>
<path class="st1" d="M247.3,1315.3c27.6,0,51,0,75.4,0C315.8,1329.6,283.4,1329.4,247.3,1315.3z"/>
<path class="st1" d="M169.4,842.2c21.5-8.6,25,8.9,34.8,20.5C183,869.8,176.2,857.4,169.4,842.2z"/>
<path class="st1" d="M641.8,1074.6c-4.1-0.9-8.1-1.9-12.2-2.8c1.9-4.4,2.8-9.5,5.8-13c3.5-4.2,8.7-6.9,13.2-10.2
	c1.9,0.5,3.9,1,5.8,1.4c9,15.2-3.8,19.1-13,24.8C641.4,1074.8,641.8,1074.6,641.8,1074.6z"/>
<path class="st1" d="M326.8,1144l1.5-0.3c5-2.9,9.8-6.9,15.2-8.3c3.6-0.9,9.5,0.7,11.9,3.3c1.5,1.7-1.6,7.4-2.7,11.4
	c-2,0.7-3.9,1.5-5.9,2.2c-6.2,1.2-12.7,4-18.7,3.2C316.2,1154,320.3,1148.7,326.8,1144z"/>
<path class="st1" d="M208.6,888.9c11.6,3.4,23.2,6.7,34.7,10.1c-0.6,2.1-1.2,4.2-1.8,6.2C227,912.4,214.8,911.6,208.6,888.9z"/>
<path class="st1" d="M654.4,1050c-1.9-0.5-3.9-0.9-5.8-1.4c-11,3.3-12.8-2.7-6.3-8.7c6.3-5.8,16-7.9,24.2-11.6
	c1.1,1.7,2.3,3.4,3.4,5.1C664.8,1038.9,659.6,1044.4,654.4,1050z"/>
<path class="st1" d="M1755.7,1166.4c-26.6-111.5-79.5-210.4-142.7-305C1673.4,861.6,1776.3,1080.8,1755.7,1166.4z"/>
<path class="st1" d="M1955.3,1004.5c13.6-15.8,27.5-31.4,40.8-47.5c13.6-16.5,25.3-34.6,40-49.9c13.3-13.8,30.1-24,44.3-37
	c14.3-13.1,26.4-28.8,41.1-41.4c15.9-13.5,33.8-24.7,52.9-34.4c-57.8,85.8-135.8,150.5-215.1,213.9
	C1958,1007,1956.7,1005.8,1955.3,1004.5z"/>
<path class="st1" d="M1875.2,1180.1c53.4-75.1,242.6-136.6,318.3-102.5C2080.6,1094.7,1973.9,1120.4,1875.2,1180.1z"/>
<path class="st1" d="M1958.2,611.1c22.6-33.6,27.7-72.5,30-111.1c2.1-36-1.6-72.4-2.7-108.7c-0.1-2.5,0-5.1,3.9-9
	c3.6,9.4,7.3,18.9,10.8,28.3c23.2,61.8,7.4,121.4-10.6,180.7c-4.6,15-13.2,28.8-19.9,43.2l0.3-0.4c-13.1,18.1-26.3,36.2-39.4,54.4
	c-2.2-1.1-4.4-2.2-6.6-3.3c3.8-8.1,6-17.8,11.8-24c13.8-14.5,23.5-30,22.7-50.7C1958.5,610.7,1958.2,611.1,1958.2,611.1z"/>
<path class="st1" d="M2101.5,610.3c-56.9,83.6-113.2,166.3-167.9,246.8C1929,809.8,2032.6,654.7,2101.5,610.3z"/>
<path class="st1" d="M2098.8,1301.6c-89,4-178.5,0.9-267,25.6C1882.7,1280,2035.2,1264.6,2098.8,1301.6z"/>
<path class="st1" d="M2098,677.3c-34.8,72.5-98.2,122.5-145.5,185.1c-1.7-1.1-3.4-2.3-5.1-3.4c9.3-15.7,18.1-31.8,28-47.1
	c17.8-27.7,35.9-55.3,54.5-82.4c10-14.6,19.8-29.6,32.3-41.9c8-7.8,20.6-10.9,31.2-16.2C2094.9,673.3,2096.5,675.3,2098,677.3z"/>
<path class="st1" d="M1712.2,159.6c70,38.5,126,147,137.1,266.6C1822.5,327.5,1777.8,238.2,1712.2,159.6z"/>
<path class="st1" d="M1723.2,1478.9c57.2-19.6,169.8-7,213.1,46.7C1864.2,1509.8,1790.4,1493.6,1723.2,1478.9z"/>
<path class="st1" d="M1961.9,513.4c-2.7-11.3-8.3-22.8-7.5-33.8c3.2-44.2-1.1-88.3-0.6-132.5c0.1-6.6,1.8-13.1,2.7-19.6
	c2.3-0.1,4.6-0.3,6.9-0.4c5,26.9,12.3,53.6,14.4,80.7c2.5,32.6,0.9,65.6,0.2,98.4c-0.1,5.2-5.4,10.3-8.2,15.4
	C1967.1,518.9,1964.5,516.1,1961.9,513.4z"/>
<path class="st1" d="M1574.7,1155.4c52.6,33,78.8,149.7,61.4,204.2C1616.7,1295.1,1595.5,1224.8,1574.7,1155.4z"/>
<path class="st1" d="M1848.3,593.9c-49.2-52.5-101.4-108.2-151-161.1C1752.6,448,1833.4,524.4,1848.3,593.9z"/>
<path class="st1" d="M2093,633.3c-0.6,4.4,0.6,11-2.1,13.7c-40.4,39.6-89,66.6-142.1,87.6c7.9-6.9,15.7-13.8,23.7-20.6
	c35.5-30.1,71.3-59.7,106.4-90.3c11.4-9.9,21.9-11.4,35.6,1.6C2106.8,628.1,2099.1,631,2093,633.3z"/>
<path class="st1" d="M1659.3,419.3c53.5,43.7,104.2,90.2,149.2,146c-14.5,6.8-24.6,4-33.2-5.1c-0.9-0.9,2.8-6.1,3-6.6
	c-11-9-24.6-17.7-35.2-29.1c-27.8-30-54.4-61.2-81.3-92.1c-2.5-2.8-4-6.5-6-9.7C1657,421.7,1658.2,420.5,1659.3,419.3z"/>
<path class="st1" d="M1994.9,1149.8c1.4,3.4,2.8,6.7,5.6,13.5c-9.1-2.6-14.8-4.2-20.6-5.9c-3,21.4-17.9,7.3-29,9.5
	c1.5,3,2.8,5.7,5.4,11.1c-20.2-9.7-26.3,10.7-40,15.6c-26.9,9.8-52.2,23.7-80.7,32.6c6.8-6.3,12.7-14,20.5-18.7
	c33.7-20.3,67.6-40.2,102.1-58.9c7.1-3.8,17.3-1.8,26.1-2.5C1987.8,1147.4,1991.3,1148.6,1994.9,1149.8z"/>
<path class="st1" d="M1701.4,1074.5c15.8,5.1,22,17.1,26.8,32.2c12.2,38.2,21.1,76.8,23.3,116.7c-1.6,0.6-3.1,1.1-4.7,1.7
	c-2-5.3-4.3-10.5-6-15.9c-6.9-21.5-16.9-42.6-19.5-64.6c-2.5-21.4-19-35-22.8-54.5c-0.9-4.7,2.1-10.2,3.2-15.4
	C1701.8,1074.7,1701.4,1074.5,1701.4,1074.5z"/>
<path class="st1" d="M1853.2,669.8c-1.6-7.6-1.9-15.8-5.1-22.6c-6.5-13.6-14.7-26.3-22.2-39.4c-0.3-0.6-0.6-1.2-1.1-1.6
	c-11-9.9-22-19.8-34.6-31.1c15.4-7.3,25.6-4,33.1,7.9c13.9,21.8,27.4,43.8,41.2,65.6c6.5,10.3,13.9,20,19.5,30.7
	c3,5.7,3.2,13,5.2,21.5c-13.7-11.8-25-21.6-36.4-31.4C1852.9,669.5,1853.2,669.8,1853.2,669.8z"/>
<path class="st1" d="M1798.6,891.4c31.1,10.1,32.3,39,38.3,63.7c6.2,25.9,9.1,52.6,13.5,78.9c-2.3,0.5-4.6,1-6.8,1.5
	c-8.9-28.1-17.7-56.3-26.6-84.4c-3.2-10.2-7.1-20.2-10.2-30.4c-2.9-9.5-5.1-19.2-7.7-28.9L1798.6,891.4z"/>
<path class="st1" d="M2088,1114.2c2.3-2.8,4.2-7.5,7-8c37.8-7.6,75.7-14.5,113.5-21.7c0.8,2.6,1.7,5.3,2.5,7.9
	c-16.7,5.8-33.3,11.7-50,17.3c-13.8,4.7-27.5,10.3-41.6,13.3c-6.9,1.5-14.8-2.1-22.3-3.4C2094.1,1117.8,2091,1116,2088,1114.2z"/>
<path class="st1" d="M2088,1114.2c3.1,1.8,6.1,3.7,9.1,5.5c5.7,9.7,0,12.1-8.3,13.7c-6.4,1.3-12.6,5.8-18.8,5.5
	c-18-0.9-34.2,16.7-53,5.1c-1-0.2-2-0.6-2.9-1.2c-0.6-4.7-2-13.5-1.6-13.6C2037.6,1123.7,2062.8,1119,2088,1114.2z"/>
<path class="st1" d="M1961.9,513.4c2.6,2.7,5.2,5.5,7.8,8.2c0.4,11.8,2.5,23.8,0.8,35.3c-2.7,18.3-8,36.2-12.3,54.2l0.3-0.4
	c-5.4,10.9-10.7,21.8-16.1,32.7c-1.3-0.3-2.6-0.7-3.8-1c3.2-20.2,6.7-40.3,9.4-60.6c2.8-21.1,4.5-42.4,7.2-63.5
	C1955.4,516.4,1959.6,515,1961.9,513.4z"/>
<path class="st1" d="M1675.4,1609c-41-6.9-81.9-13.7-121.2-20.3C1578.5,1570.8,1641.8,1578.8,1675.4,1609z"/>
<path class="st1" d="M1758.1,804.1c31.2,11,34.4,41.6,49,66.1c-28.3-0.4-45.5-21.1-55.5-63.7
	C1753.7,805.7,1755.9,804.9,1758.1,804.1z"/>
<path class="st1" d="M1438,1398.3c40.5,25.8,53.2,65.2,53.5,110.5C1473.7,1472,1455.9,1435.2,1438,1398.3z"/>
<path class="st1" d="M1775,1506.4c0.4,3.1,0.8,6.2,0.9,7.2c-38.4-2.7-76.4-5.4-119.1-8.4c29.1-12.1,55.8-14.6,82.6-10.9
	c12.3,1.7,23.9,8.2,35.8,12.5L1775,1506.4z"/>
<path class="st1" d="M1758.1,804.1c-2.2,0.8-4.4,1.6-6.5,2.4c-13.8-28.6-27.7-57.2-41.5-85.7c2.6-1.4,5.1-2.9,7.7-4.3
	c16.8,26.8,33.5,53.6,49.8,80.6C1767.7,797.4,1761.4,801.6,1758.1,804.1z"/>
<path class="st1" d="M1766.7,287.8c-7.9-5-22.7-29.5-27.1-39.7c-3-6.9-10-12.1-15.9-18.9c25.8-8,39,5.5,59.1,58.4
	c-6.2,0-11.3,0-16.5,0L1766.7,287.8z"/>
<path class="st1" d="M1661.8,957.9c-19.9-2-30.3-3.6-31.4-22c-0.6-10.1-9.7-19.7-14.8-29.6c-7.6-14.5-15-29.1-22.5-43.7
	c2.2-1.2,4.5-2.5,6.7-3.7C1619.5,890.4,1639.2,921.8,1661.8,957.9z"/>
<path class="st1" d="M1680,138.3c20.9,25.9,41.8,51.7,65.1,80.6c-19.2,3.8-25.8,3.5-31-14.7s-21.9-33-33.3-49.6
	c-2.6-3.9-3.8-8.7-5.6-13.1C1676.8,140.4,1678.4,139.3,1680,138.3z"/>
<path class="st1" d="M1656.6,978.4c-5.2-3.8-10.3-7.6-17.4-12.9c24.3-5.9,46.7,22.1,52.6,60C1666.8,1023.8,1646,995.9,1656.6,978.4z
	"/>
<path class="st1" d="M1777.5,1365.4c25.3-20.8,56.1-29.7,87.8-35.3c6.6-1.2,14.6,5.9,23.4,9.8
	C1849,1349.1,1813.3,1357.3,1777.5,1365.4z"/>
<path class="st1" d="M1481.2,1549.1c-15.9-41.6-31.7-83.1-47.6-124.7C1461,1462.5,1483.6,1502.2,1481.2,1549.1z"/>
<path class="st1" d="M1611.6,1426.2c-3-32.7-5.7-62.1-8.4-91.1C1624,1338.6,1631.1,1393.3,1611.6,1426.2z"/>
<path class="st1" d="M1775.3,1506.8c0.4-1.9,0.3-4.9,1.4-5.4c16.7-8,60.9,9.5,68.4,27.3c-24.3-5.2-51.7,0.5-70.1-22.3
	C1775,1506.4,1775.3,1506.8,1775.3,1506.8z"/>
<path class="st1" d="M1828.2,416.3c-7.4-15.4-14.8-30.8-22-46.2c-6.5-13.9-12.8-27.9-18.8-41
	C1808.8,330.9,1829.2,368.5,1828.2,416.3z"/>
<path class="st1" d="M1609.6,1312.2c-32-13-21.8-44.1-32-66.9C1598.2,1251.5,1612.2,1281.3,1609.6,1312.2z"/>
<path class="st1" d="M1987.5,1330.4c-4.3-2-8.6-4.1-11.2-5.3c-10.7,21-23.8,6.4-35.3,4c-9.6,15.4-18.2,14.6-34.3-2.9
	C1926.8,1315.7,1975.6,1316.5,1987.5,1330.4z"/>
<path class="st1" d="M2072.5,675.4c20.5-29.5,38.1-54.6,55.6-79.8c1.1,0.6,2.2,1.2,3.3,1.8c-9.1,22.2-16.8,45.2-28.2,66.2
	C2099.6,670,2085.6,670.7,2072.5,675.4z"/>
<path class="st1" d="M1576.5,1221.5c-13.8-15.9-15.7-36.6-18.9-56.8c1.6-0.7,3.3-1.4,4.9-2.1c7.1,18.3,14.2,36.6,21.3,55
	C1581.4,1218.9,1579,1220.2,1576.5,1221.5z"/>
<path class="st1" d="M2088.7,1312.9c-24.8,14.9-58.2,15.8-67.7,3.7C2044.6,1315.4,2066.6,1314.1,2088.7,1312.9z"/>
<path class="st1" d="M1926.4,1536.9c-27.7,8-50.1,1.3-55.7-15.4C1890.3,1526.9,1908.3,1531.9,1926.4,1536.9z"/>
<path class="st1" d="M1620.2,1617.7c-18.4-2.7-36.8-5.4-55.2-8.1c0.5-3,0.9-6,1.4-9c18.4,2.8,36.8,5.6,55.1,8.4
	C1621.1,1611.9,1620.7,1614.8,1620.2,1617.7z"/>
<path class="st1" d="M2014.1,1142.8c0.9,0.6,1.8,1,2.9,1.2c6.5,5.4,8.6,11.1-2.4,11.5c-6.5,0.3-13.2-3.7-19.7-5.7
	c-3.6-1.2-7.1-2.4-10.6-3.6C1990.1,1131,1991.1,1130.9,2014.1,1142.8z"/>
<path class="st1" d="M2173.1,841.3c-6.1,17.3-13.7,27.6-34.8,22.1C2147.6,851.8,2151,836,2173.1,841.3z"/>
<path class="st1" d="M2138.3,887.4c-10.4,23.7-22.7,24.7-37.1,18.4c-0.7-2.2-1.4-4.4-2-6.6C2110.8,895.6,2122.3,892.2,2138.3,887.4z
	"/>
<path class="st1" d="M1693.6,1051.3c5.3,3.3,11.1,6,15.7,10c2.4,2.1,2.6,6.7,3.8,10.2c-3.9,1-7.8,2-11.7,3l0.4,0.2
	c-5.4-4.2-12.2-7.5-15.8-12.9c-5.4-8.2-0.7-11.5,8-10.3L1693.6,1051.3z"/>
<path class="st1" d="M1694,1051.6c-7.4-5.8-14.7-11.7-22.1-17.5c1.5-2.3,3-4.5,4.5-6.8c8.4,5,16.8,10.1,25.3,15.1
	c-2.7,3-5.4,5.9-8.1,8.9C1693.6,1051.3,1694,1051.6,1694,1051.6z"/>
<path class="st1" d="M2165.2,830.9c7.2-10.2,13.4-19,21.5-30.5C2188.5,825.7,2184,832.1,2165.2,830.9z"/>
<path class="st1" d="M1766.3,287.6c9,4.3,18,8.5,27.1,12.8c-21.1,8.4-30.2,2.1-26.6-12.6C1766.7,287.8,1766.3,287.6,1766.3,287.6z"
	/>
<path class="st1" d="M1799,891.7c-5.2-4.9-10.3-9.9-15.5-14.8c1.1-1.8,2.2-3.5,3.3-5.3c9.6,4.3,19.2,8.7,28.9,13
	c-0.6,2.3-1.2,4.5-1.8,6.8c-5.1,0-10.2,0-15.2,0C1798.6,891.4,1799,891.7,1799,891.7z"/>
</svg>
