<?xml version="1.0" encoding="utf-8"?>
<!-- Generator: Adobe Illustrator 22.0.1, SVG Export Plug-In . SVG Version: 6.00 Build 0)  -->
<svg version="1.1" id="Layer_1" xmlns="http://www.w3.org/2000/svg" xmlns:xlink="http://www.w3.org/1999/xlink" x="0px" y="0px"
	 viewBox="0 0 2400 2000" style="enable-background:new 0 0 2400 2000;" xml:space="preserve">
<style type="text/css">
	.st0{fill:#DD8C0A;}
	.st1{fill:#FFF200;}
</style>
<path class="st0" d="M631.6,1662.9c48.1-51.4,107.8-60.7,178.3-41.1c-33-44.2-74-59.8-121.9-62.3c-57-3-111.9,10.2-167.5,19.3
	c-40.9,6.7-82.2,11.2-123.4,15.4c-7.2,0.7-15-4.7-22.5-7.3c3.9-6.3,6.8-13.7,11.9-18.6c49.8-47.5,110.3-66.3,177.9-64.6
	c46.5,1.2,91.4,10.6,134.3,29c7.6,3.3,15.4,6.2,26.2,5.9c-6.2-6.6-13.3-12.6-18.4-20c-55.2-80.6-139.3-105.6-229.1-118.4
	c-65.2-9.3-130.8-15.6-196.1-24.2c-20.4-2.7-40.6-8.1-60.6-13.2c-6.3-1.6-11.8-6.5-20.4-11.5c6.8-5.4,10.7-9.9,15.5-12
	c74.4-33.2,148.4-33.3,227.1-10c61.3,18.2,115.3,47.3,170.6,79c-2.1-4.1-4.3-8.2-6.4-12.4c-47-92.9-131.7-135.8-224.1-167.5
	c-80.9-27.7-162.3-53.9-243.4-81c-9.2-3.1-18.3-7-26.4-12.2c-4.8-3-7.6-9.2-11.3-14c4.6-3.1,8.9-7.7,14-8.9
	c42.5-10.2,85.5-15.6,129.3-10.3c99.6,12,181.1,59.7,251.5,128.7c6.8,6.7,11.7,15.4,17.4,23.1c2.4-1.8,4.8-3.6,7.3-5.3
	c-4.2-10.8-10.3-21.2-12.4-32.4c-12.2-66.5-61-99.3-115.4-126.9c-72.8-36.9-142.3-78-193.2-144.1c-26.4-34.3-56.5-66.7-61.2-112.7
	c-0.7-7.1,1.6-14.6,2.5-21.9c6.4,1.9,13.6,2.4,19.1,5.8c68,42.6,128.7,92.9,179.2,156.5c39.8,50.1,85.8,95.4,129.1,142.7
	c1.1,1.2,3.3,1.3,8,3.1c-11.4-47.1-13.5-95.1-42-133.7c-39.6-53.6-80.1-106.7-123.8-157c-39.2-45.1-73.3-92.1-93.7-148.6
	c-5.4-15.1-15.1-28.6-21.4-43.5c-3.7-8.7-4.5-18.5-3.4-29.2C327.3,686.8,401.6,809,439.9,957.1c1.8-0.9,3.6-1.9,5.4-2.8
	c-1.7-24.8-4.1-49.6-5-74.5c-1-28.5,0-57.1-1.5-85.6c-0.5-9.5-4.6-19.9-10-27.9c-23.1-34.4-51.3-65.9-70.2-102.4
	c-49.5-95.3-47.5-192,3.1-287.1c6.4-12.1,12.9-24.1,19.4-36.2c2.4,0.2,4.7,0.5,7.1,0.7c2.6,9.4,7.3,18.7,7.6,28.1
	c1.8,63.5,2.4,127.1,3.7,190.7c1.1,55.4,6.1,110.2,28.2,161.9c2.5,5.7,5.4,11.3,12.5,16.6c3.6-25.8,6.6-51.7,10.8-77.5
	c3.5-21.7,6.3-43.9,13-64.7c14.2-43.9,15.1-89.2,17.8-134.5c8.1-135.4,79-232.6,187-307c4.1-2.8,10.6-2.2,15.9-3.2
	c0,5.5,1.9,11.8-0.2,16.2c-11.7,24.5-23.7,49-36.8,72.8c-45.6,82.9-93.9,164.3-137,248.5c-30.5,59.7-44.3,125.3-48.3,193.2
	C489.4,606,522.9,534,595.1,489.9c36.1-22.1,74.4-40.8,111.6-61.1c2,1.8,4,3.6,6.1,5.3c-3.5,8.8-5.3,18.9-10.9,26.2
	c-19.7,25.7-40.4,50.7-61.2,75.5c-55.8,66.5-112.2,132.6-167.8,199.2c-18.2,21.8-25.4,47.4-22.8,76.1c6.3,70.3,11.8,140.7,17.8,211
	c0.6,6.5,3,12.9,7.7,20C474.2,907,523.4,799.5,646.2,729c-1.7,11.1-1,23.3-5.4,33.2c-24.2,54.5-49.4,108.5-74.6,162.6
	c-28.5,61.3-53.8,123.5-63,191.3c-3.6,26.5-1.6,51.4,9.3,75.9c19,43,37.5,86.4,56.2,129.6c2.7-0.7,5.4-1.4,8-2.2
	c-0.7-9.5-1.3-19-2.2-28.5c-9.9-104,7-203.1,54.7-296.3c26.7-52.2,66.9-92,117.2-121.6c4.5-2.6,10.6-2.4,16-3.6
	c0.6,6,3.4,13,1.3,17.9c-18.2,43.6-36.5,87.2-56.2,130.2c-36.9,80.7-77.5,160-99.8,246.6c-1.6,6.3-2.4,12.8-4.6,18.9
	c-18.1,52.2-3.3,95.4,33.3,134.7c26,28,49.3,58.4,73.5,88.1c3.9,4.8,6.1,11.1,9.1,16.7c2.3-2,4.6-4,6.9-6c-6-16.8-13-33.3-17.7-50.4
	c-21.1-76.4-25.7-152.8,12.5-225.2c13-24.7,34.4-45,52.8-66.6c3.6-4.3,10.9-5.4,16.5-8c2.3,6.3,7.5,13.1,6.5,18.8
	c-7.2,40.7-14.3,81.6-24.2,121.7c-14.4,58.6-32.1,116.3-29.8,177.7c1.4,37.8,9,71.3,41.7,95.6c21.7,16.1,41.3,35,65.6,50.6
	c-2.8-13.9-6.2-27.8-8.5-41.8c-11.2-70,7.8-128.3,67.6-170.1c5.8-4,13.8-4.9,20.7-7.3c0.8,7.9,4.3,16.6,2.1,23.4
	c-8.4,25.9-19.4,50.9-27.9,76.7c-11.2,33.7-22.5,67.4-31.1,101.9c-6.1,24.6,1.4,45.2,26.1,58.5c43.9,23.7,86.8,49,130.2,73.6
	c5.8,3.3,11.8,6.3,17.6,9.4c-0.6,2-1.3,4-1.9,5.9c-6-1.4-12.7-1.5-17.9-4.3c-39.3-21.2-80.1-40.3-116.9-65.3
	c-39.8-27-81.6-34-127.6-29.2c-41.3,4.3-82.6,8.1-123.9,11.3c-8.5,0.7-17.3-2-25.9-3.1C632.2,1668,631.9,1665.5,631.6,1662.9z
	 M648.6,1090c-4.5,3.3-9.7,6.1-13.2,10.2c-2.9,3.5-3.9,8.6-5.8,13c4.1,0.9,8.1,1.9,12.2,2.8c-15.9,4.6-23.6,16-27.4,31.4
	c-5.5,22.5-12.6,44.7-17.2,67.4c-3.4,16.7-3.9,34.1-5.6,51.1c1.6,0.2,3.2,0.4,4.8,0.6c2.3-7.2,4.5-14.5,7-21.6
	c11.1-31.8,22.8-63.5,33.2-95.6c3.4-10.5,3.3-22.1,4.9-33.2c9.1-5.8,22-9.6,13-24.8c5.2-5.6,10.3-11.1,15.5-16.7
	c-1.1-1.7-2.3-3.4-3.4-5.1c-8.2,3.7-17.9,5.8-24.2,11.6C635.8,1087.3,637.6,1093.4,648.6,1090z M498.6,1559.1
	c-27.7,6.1-55.3,12.3-83,18.4c0.7,2.8,1.4,5.5,2,8.3c12.4-3,25-9.1,37.2-8.4c18.8,1.1,33.4-2.9,44-18.8c-0.5,3.6-1,7.2-1.6,10.8
	c1,0.7,2.1,1.5,3.1,2.2c2.3-4.3,4.7-8.6,7-12.8c0.9,2.6,1.9,5.3,2.8,7.9c12.2-1.1,25-0.4,36.4-4c7.9-2.6,13.9-11.2,20.7-17.2
	c-1.6-2.8-3.2-5.5-4.9-8.3C541.3,1544.5,520,1551.8,498.6,1559.1z M754.1,1288.1c27.4-22.4,21.2-55.5,28.4-84.4
	c-9.1,15.6-16.1,32-21.4,48.9c-3.6,11.4-4.6,23.5-6.7,35.3c-19,17.6-17.6,42.1-25,65.9c27.4-10.6,28.6-13.2,32.3-67.6
	C759.1,1286.9,756.6,1287.5,754.1,1288.1z M583,847.8c6.9-8.4,15.5-15.8,20.5-25.2c10.5-19.9,19.1-40.7,28.5-61.2
	c-2.2-1.2-4.3-2.4-6.5-3.6c-17.1,26.8-34.4,53.6-51,80.7c-0.5,0.9,5.8,5.9,8.9,9c-6.3,2.7-15.3,3.7-18.4,8.4
	c-10,15.6-18,32.4-25.9,49.2c-0.5,1.1,6,5.6,9.2,8.5c-6.3,6.8-28.5,5.2-13.1,24c-21.7,11.3-47.1,101.8-37.9,139.1
	c2-3.8,3.9-6.3,4.8-9.1c9.8-30.1,18.8-60.5,29.2-90.3c6.2-17.7,13.7-35.2,22.4-51.8c4.8-9.1,3.3-11.4-5.9-11.6
	c4.9-2.9,11.9-4.5,14.4-8.8c9.6-16.5,17.8-33.8,26.1-51.1C588.9,853,584.9,849.9,583,847.8z M328.2,1185.2c-0.1-5.2,1-14.8-0.3-15.1
	c-27.2-6.8-53.4-28.2-82.8-7.1c2.4-4.1,4.8-8.2,9.2-15.7c-42.1-7.2-81.4-13.9-120.6-20.6c-0.7,2.8-1.4,5.7-2.1,8.5
	c26.2,7.9,52.2,16.5,78.6,23.5c11.3,3,23.5,2.8,35.3,4c-6.1,13.7,4.7,11.3,11.7,11.7c3.6,0.2,9-3.3,10.6-1.8
	c17.4,15.6,37,19.5,59.1,13c-6.5,4.7-10.6,10,1.3,11.6c6,0.8,12.4-2,18.7-3.2c-2.3,11.3-2.3,11.3,17.4,5.3
	c0.7,11.5,0.7,11.5,26.3,10.5c-1,2.4-2.7,6.3-2.6,6.3c39.9,19.1,79.8,38,119.8,56.9c1.8-1.9,3.5-3.8,5.3-5.7c-6-3.7-12-7.3-18-11
	c-34.7-21.3-69.3-42.7-104-63.9c-12.5-7.6-25.4-9-38.3-0.6c1-3.9,4.1-9.7,2.7-11.4c-2.4-2.7-8.3-4.3-11.9-3.3
	C338,1178.3,333.2,1182.3,328.2,1185.2z M380.9,555.6c14.7-20.4,3.2-43.7,6.7-65.5c3-18.3,2-37.2,2-55.9c0-21.7-0.8-43.4-1.3-67.5
	c-5,3-5.9,3.2-6.1,3.6c-22,60.5-24.2,122.7-16.4,185.8c0.3,2.6,5,4.7,7.6,7c-0.5,11-3.4,22.6-0.9,32.9c6.8,28.2,15.9,55.8,25.2,87.4
	c4.4-5.9,5.1-6.5,5.1-7c-1.6-34.5-16.9-67.2-13-102.7C390.4,568.2,384,561.7,380.9,555.6z M426.9,1357c27,2.5,54.1,4.9,79.2,7.2
	c-78.1-47.3-217.1-57.6-266.2-17.6c34.3,0,63.9-1.4,93.4,0.4c31.4,1.9,62.6,6.7,94,10.3c-12.2,0.2-24.3,0.6-36.5,0.5
	c-15.1-0.1-31.7-4.8-39.9,15c15.2,2.7,29.5,4.5,43.5,7.9c16.7,4,30.9,0.5,48.1-12.8C436.3,1363.5,431.6,1360.2,426.9,1357z
	 M731.8,898.3c-80,35.7-173,239.8-143.6,311.1C612.9,1095.3,667.9,996.9,731.8,898.3z M385.1,1048.6
	C323.6,966.4,259.1,887.1,167.4,836C225.4,921.7,304,986.3,385.1,1048.6z M149.6,1119.5c112.6,16,218.7,43.2,315.7,99.2
	C400,1141.9,218.5,1083.8,149.6,1119.5z M464.8,716.8c1.9,1.4,3.8,2.8,5.7,4.1c16.6-23,33.3-46.1,49.9-69.1
	c13.1-17.6,29.8-33.1,45.8-49.4c1.2-1.2-2.3-7-2.3-6.9c11.9-9.8,25.2-18.7,35.8-30.1c26.6-28.3,52.1-57.6,77.9-86.7
	c3.9-4.4,6.7-9.7,10-14.5c-1.5-1.1-3.1-2.3-4.6-3.4C595.4,533.5,513.4,610.9,464.8,716.8z M248.1,651.2c-1.5,1.4-3,2.7-4.5,4.1
	c55.4,81.6,110.8,163.2,169.2,249.2c-16-55-36.8-102.3-68.8-143.3C314.1,722.9,280.2,687.7,248.1,651.2z M242.3,714.5
	c37.3,76.9,100.2,127,150.3,187.4c-3.5-11.6-9.1-21.6-15.2-31.2c-20.6-32.2-40.9-64.6-62.4-96.2c-6.2-9.1-21.1-14.4-23.3-23.5
	C285.8,726.4,270.2,718.2,242.3,714.5z M491.1,465.6c19-46.3,35.2-94.8,58.4-139.7c23-44.5,53-85.4,79.5-127.2
	C553.2,250.6,488.3,376.1,491.1,465.6z M356.9,421.6c-44.8,69.6-23,223.6,40.5,279.6C355.7,609.8,341.4,517.9,356.9,421.6z
	 M601,772.4c-78.9,58.9-106.2,142.3-112.2,235.7C513.5,923.5,554.4,846.6,601,772.4z M619.5,1520c-58.9-23.9-190.9,4.8-212.1,46.8
	C478.2,1551.2,550.6,1535.2,619.5,1520z M769.2,1198c-52.5,35-88.1,166.5-58.4,213.2C714.6,1335,748.1,1268.4,769.2,1198z
	 M654.6,469.5c-71,22.2-154.6,113.2-161.4,170.9c24.5-28.7,48.2-58.7,74.3-86.4C594,525.9,622.9,500.1,654.6,469.5z M394.5,1077.1
	c-1.9-4.8-2.1-6.4-2.9-7.1c-43.8-37.3-87.2-75.2-132-111.3c-6.9-5.6-20-3.6-30.2-5.1c-0.7,3.1-1.4,6.1-2.1,9.2
	c7.8,3.2,15.6,6.4,21.2,8.7c1.3,4.6,1,11.2,4.2,14.4C292.4,1025.6,341.6,1051.1,394.5,1077.1z M548.8,344.7
	c22.1,2.4,21.7,2.2,30.3-15.3c3.8-7.7,14-9.6,12.3-23.4c-1-8.2,14.8-18.3,22.7-27.8c1.8-2.2,2.1-5.7,3.1-8.6
	c-1.1-1.8-2.2-3.6-3.2-5.5c-8.7,4.1-21.2,5.9-25.3,12.7c-10.6,17.4-29.3,32-26.4,55.6C558.2,336.2,553.5,340.5,548.8,344.7z
	 M665.9,1650.9c41-7.1,81.9-14.2,122.9-21.3C744.8,1616.9,703.1,1619.6,665.9,1650.9z M906.8,1436.8
	c-36.3,19.8-62.1,74.1-56.2,113.1C868.9,1513.2,887,1476.7,906.8,1436.8z M750.5,905.2c-2.4-1.5-4.8-2.9-7.2-4.4
	c-19.9,31.2-39.9,62.4-59.8,93.6c1.5,1.8,2.9,3.6,4.4,5.3c6.5-2.7,14.5-3.9,19-8.5c3.9-4,2.8-12.5,5.8-18
	C724.9,950.4,737.8,927.9,750.5,905.2z M698.6,1001.4c-7.9,2.7-18,2.9-20.9,7.6c-11.3,18.3-20.3,38-30.2,57.3c2,1.9,4.1,3.8,6.1,5.7
	c9.1-7.3,21-13,26.7-22.4C688.3,1036.4,691.7,1020.5,698.6,1001.4z M670,184.6c-2-1.6-4.1-3.1-6.1-4.7
	c-22.1,25.3-46.5,48.8-62.4,81.4c18.6,4.5,22-3.8,28.3-16.7C640.1,223.2,656.3,204.5,670,184.6z M566.6,1407.4
	c-26.3-21.4-57.6-30-89.6-35.7c-6.3-1.1-14.1,6.1-22.6,10.1C494.6,1390.9,530.6,1399.1,566.6,1407.4z M730.5,1466.6
	c3.4-31.9,6.5-61.9,9.6-91.2C718,1382,711.1,1431.2,730.5,1466.6z M679,1550.5c-33-24.2-79.8-20.6-89.7,0
	C618.4,1550.5,648.7,1550.5,679,1550.5z M215.5,639c-1.4,0.9-2.8,1.7-4.3,2.6c6.7,15.1,14.5,29.8,20,45.4
	c8.5,23.9,8.9,24.9,35.7,25.1C249.9,687.9,232.7,663.4,215.5,639z M507.8,456.1c2,0.8,4,1.6,6,2.4c13.9-29.5,27.8-59,44.2-93.5
	c-10.5,7-21.5,10.2-24.3,16.9C523.5,406,516.1,431.3,507.8,456.1z M859.7,1597.7c13.8-38.2,25.8-71.2,37.7-104.2
	c-2.3-0.8-4.6-1.6-6.9-2.4C873.4,1522.6,858,1554.7,859.7,1597.7z M723.9,1651.3c0.2,2.1,0.3,4.3,0.5,6.4c32-2.9,64-5.8,96-8.6
	C787.7,1640,755.6,1641,723.9,1651.3z M247.3,1356.8c36.1,14.1,68.5,14.3,75.4,0C298.3,1356.8,274.9,1356.8,247.3,1356.8z
	 M169.4,883.7c6.8,15.2,13.5,27.6,34.8,20.5C194.5,892.6,190.9,875.1,169.4,883.7z M208.6,930.4c6.2,22.7,18.5,23.6,32.9,16.3
	c0.6-2.1,1.2-4.2,1.8-6.2C231.7,937.1,220.1,933.7,208.6,930.4z"/>
<path class="st0" d="M1853.2,711.3c-40.3-47.3-80.5-94.8-121-141.9c-25.3-29.5-51.3-58.5-76.6-88c-7.1-8.3-14.1-17.2-19.2-26.8
	c-3.2-6.1-3-14-4.3-21.1c6.5,1.4,13.8,1.4,19.4,4.5c37.6,20.4,76.4,38.9,111.7,62.8c58.1,39.2,85.7,100.6,109.1,163.9
	c1.9,5.2,3.9,10.3,5.9,15.4c1.9-0.4,3.7-0.9,5.6-1.3c-4.4-23.5-8.5-47.1-13.3-70.5c-17.6-85.5-55.1-162.8-99.1-237.3
	c-33-55.8-65.2-112-97.4-168.3c-5.8-10.1-11-20.7-14.8-31.6c-2.1-5.9-0.6-13-0.8-19.6c5.9,1.7,12.7,1.9,17.5,5.2
	c111.7,75.9,181.3,178.4,186.1,315.5c2.1,61.2,19.2,118.6,27.8,177.9c4.2,29.2,8.1,58.5,12.6,91.2c20.7-21.9,24.7-46.9,29.5-70.8
	c16.6-82.1,10.2-165.4,11.7-248.2c0.3-19.4,1.9-38.8,4.1-58.1c0.9-7.7,4.9-15,8.3-24.7c5.3,4.3,8.6,5.7,9.9,8.2
	c29,56.7,56.8,113.6,55.2,179.9c-1.2,47-18.8,89.3-35.6,131.8c-2.6,6.6-10.2,11.2-15.6,16.7c6.7-14.4,15.3-28.2,19.9-43.2
	c18-59.2,33.8-118.9,10.6-180.7c-3.6-9.5-7.2-18.9-10.8-28.3c-3.9,3.9-4,6.4-3.9,9c1.1,36.2,4.8,72.6,2.7,108.7
	c-2.3,38.5-7.4,77.5-30,111.1c4.2-18.1,9.5-35.9,12.3-54.2c1.7-11.5-0.4-23.5-0.8-35.3c2.9-5.1,8.1-10.2,8.2-15.4
	c0.8-32.8,2.3-65.8-0.2-98.4c-2.1-27.1-9.4-53.8-14.4-80.7c-2.3,0.1-4.6,0.3-6.9,0.4c-0.9,6.5-2.6,13.1-2.7,19.6
	c-0.6,44.1,3.7,88.2,0.6,132.5c-0.8,11,4.8,22.5,7.5,33.8c-2.3,1.6-6.4,3-6.7,4.9c-2.7,21.1-4.5,42.4-7.2,63.5
	c-2.7,20.3-6.2,40.4-9.4,60.6c1.3,0.3,2.6,0.7,3.8,1c5.4-10.9,10.7-21.8,16.1-32.7c0.8,20.7-9,36.1-22.7,50.7
	c-5.9,6.2-8,15.9-11.8,24c2.2,1.1,4.4,2.2,6.6,3.3c13.1-18.1,26.3-36.3,39.4-54.4c-3,9-3.9,19.6-9.4,26.7
	c-13.5,17.2-30.2,32-43.4,49.4c-7,9.3-12.8,21.8-13.5,33.2c-3.3,54.3-4.7,108.8-6.6,163.2c0,0.9,1.3,1.9,4.4,6.3
	c24.2-71,46-140.9,89.4-200.6c43.2-59.3,93.9-110.7,161.1-153.3c0,12.6,2.1,19.7-0.3,24.5c-28,53.9-53.6,109.3-86.2,160.3
	c-22.8,35.7-56,64.6-83.2,97.6c-23.5,28.5-45.5,58.1-67.4,87.9c-25.3,34.4-34.8,74.8-42.2,115.9c-1.8,10-4.2,19.9-6.6,31
	c3.4-0.5,5.7-0.1,6.6-1.1c44.4-49,90.5-96.5,132.3-147.5c51.3-62.5,111.7-113.4,180.4-155.1c4.1-2.5,9-3.8,16-6.7
	c4.5,28.5-1.4,52.3-14.4,74.4c-52.5,89.6-128.5,152.7-220.7,198.8c-31.6,15.8-61.8,35.7-89.7,57.4c-13.8,10.7-22.9,28.9-30.9,45.3
	c-10.5,21.7-17.7,45-27.8,71.6c29.4-25.6,53.9-49.6,81-70.1c72.3-54.8,153.1-87.4,245.2-84.3c27.7,1,55.2,7.2,82.6,11.8
	c5,0.9,9.4,5.8,14,8.8c-3.8,4.8-6.5,11.9-11.4,13.9c-30.6,12.3-61.5,24.1-92.7,34.8c-71.7,24.6-144.3,46.6-215.2,73.5
	c-35.4,13.4-68.7,33.5-101.2,53.4c-38.6,23.7-68.6,63.2-94.2,118c14.5-9.5,24.7-16.4,35.1-23.1c76.8-49.5,159.6-80.4,252.2-79.8
	c39.6,0.2,76.9,11.1,112.7,27.2c4.5,2,10.1,8.2,9.9,12.2c-0.2,3.8-6.8,9.7-11.4,10.5c-45.7,8.2-91.4,16.8-137.4,23
	c-94.1,12.7-190.5,15.4-276.4,63c-15.4,8.5-29,21.4-41.6,34c-17.7,17.8-33.7,37.2-48.6,59.5c7.5-2.8,15-5.6,22.4-8.6
	c65.9-26.4,133.4-37.5,203.8-22.6c43.7,9.3,81.1,30.3,112.9,61.5c2.8,2.7,5.2,5.8,7.3,9c1,1.5,0.9,3.6,2.2,9.3
	c-9.4,1.6-18.5,5.2-27.2,4.3c-39.3-4.3-78.4-10-117.6-14.9c-53.9-6.8-107.6-15.9-161.6-19.1c-49.9-2.9-94.4,13.7-128.6,58.9
	c12.5-1.6,22.8-2.4,32.8-4.4c50.9-10.1,94.8,4.8,133.5,37.5c3.9,3.3,5.3,9.5,7.8,14.3c-5,2.3-9.8,6.5-14.9,6.7
	c-23.2,0.9-48.6,7.6-61.6-24.2c-1.1,1.6-2.1,3.1-3.2,4.7c1.2,4.3,2.3,8.5,3.7,13.7c-3.1,0.9-5.5,2.3-7.8,2.1
	c-21.9-2.2-43.8-4.7-65.7-7.2c-44.5-5-85.3,1.7-124,27.7c-37.5,25.1-78.8,44.7-118.6,66.4c-5.3,2.9-11.5,4-17.3,5.9
	c-1-1.8-2-3.6-2.9-5.4c5.5-3.6,10.9-7.5,16.6-10.8c46.5-27,92.9-54.1,139.6-80.6c15-8.5,19.4-20.8,19.3-37.2
	c-0.1-39.5-15.8-74.4-30.1-109.9c-11.3-28.2-21.7-56.8-31.1-85.7c-2-6.1,2-14.1,3.3-21.3c6.4,2.3,13.6,3.3,19,7
	c58.8,39.5,84.6,110.3,66.6,181.3c-2.5,9.9-5.2,19.8-8.8,33.3c7-3.9,11.4-5.7,15-8.5c11.7-9.3,22.2-20.2,34.6-28.3
	c59.8-39.4,69-98,57.7-161.2c-10.7-59.9-27.8-118.5-41-178c-5.2-23.3-8-47.2-10.5-71c-0.6-6.1,3.8-12.7,5.9-19.1
	c5.6,2.5,12.2,3.9,16.7,7.8c51.6,44.3,76.9,101.5,81,168.6c3.4,55.4-7.6,108.3-29.3,159.1c-1.5,3.6-2.7,7.3-3.8,11
	c-0.3,0.9,0.8,2.2,2.5,6.2c18.8-21,37.7-40.2,54.5-61.2c21.5-26.8,40.8-55.3,62-82.3c11.4-14.5,13.2-29.7,11.1-47.3
	c-9.8-82.4-41.8-157.5-75.3-232.1c-28.9-64.4-58.8-128.5-88.2-192.7c-1.4-2.9-3.4-5.9-3.6-9c-0.5-8.5-0.1-17.1,0-25.7
	c7.6,2.5,16,3.8,22.6,7.8c88.6,54.2,131.4,138.3,153.7,235.9c14.5,63.3,17,127.1,10,191.4c-0.5,4.7-0.1,9.5,4.4,15.9
	c12.1-23.1,23-46.9,36.4-69.2c52.4-86.9,34.1-173.2-1.7-259.2c-14-33.5-29.9-66.1-44.7-99.2c-21.1-47.1-42.2-94.2-62.4-141.7
	c-2.5-6,0.1-14.1,0.4-21.3c6.2,2.2,13.3,3.2,18.5,6.9c32.3,23.2,61.2,49.8,80.7,85.2c-18.6-17.8-37.2-35.7-55.8-53.5
	c-1.5,1.2-3,2.3-4.4,3.5c47.9,72.7,90.9,147.8,115.3,232.4c-2.7-32.4-6.2-64.7-16.1-94.9c-9.9-30.4-26.1-58.8-39.6-88.1
	c50.1,47.2,58.2,110.5,66.6,173.7c2,15.4,1.6,31.2,2.3,46.8c2.9,0.1,5.8,0.1,8.7,0.2c5.8-60.3,12.2-120.5,17.1-180.8
	c2-24.5,4.4-50-0.2-73.7c-4.1-21.3-17.4-40.8-27.2-60.9c-2.8-5.7-7.7-10.3-11.7-15.5c11.3,9.8,22.7,19.5,36.4,31.4
	c-1.9-8.6-2.1-15.8-5.2-21.5c-5.7-10.7-13.1-20.4-19.5-30.7c-13.8-21.8-27.3-43.8-41.2-65.6c-7.6-11.9-17.7-15.2-33.1-7.9
	c12.6,11.3,23.6,21.2,34.6,31.1c0.5,0.4,0.7,1,1.1,1.6c7.5,13.1,15.7,25.9,22.2,39.4C1851.3,695.5,1851.6,703.8,1853.2,711.3z
	 M1694,1093.1c-8.7-1.2-13.5,2.1-8,10.3c3.6,5.4,10.4,8.7,15.8,12.9c-1.2,5.1-4.2,10.6-3.2,15.4c3.8,19.5,20.2,33.1,22.8,54.5
	c2.6,22,12.6,43.1,19.5,64.6c1.7,5.4,4,10.6,6,15.9c1.6-0.6,3.1-1.1,4.7-1.7c-2.2-39.9-11.1-78.5-23.3-116.7
	c-4.8-15.1-11.1-27.1-26.8-32.2c3.9-1,7.8-2,11.8-3c-1.2-3.5-1.4-8-3.8-10.2c-4.6-4.1-10.4-6.8-15.7-10c2.7-3,5.4-5.9,8.1-8.9
	c-8.4-5-16.8-10.1-25.3-15.1c-1.5,2.3-3,4.5-4.5,6.8C1679.3,1081.4,1686.7,1087.2,1694,1093.1z M1766.3,329.1c5.1,0,10.2,0,16.5,0
	c-20.1-52.9-33.3-66.4-59.1-58.4c6,6.8,13,12,15.9,18.9c4.4,10.2,19.2,34.7,27.1,39.7c-3.5,14.8,5.6,21,26.6,12.6
	C1784.4,337.6,1775.4,333.4,1766.3,329.1z M1775.3,1548.3c-11.9-4.3-23.6-10.9-35.8-12.5c-26.9-3.6-53.5-1.2-82.6,10.9
	c42.7,3,80.8,5.7,119.1,8.4c-0.1-0.9-0.5-4-0.9-7.2c18.5,22.8,45.8,17.1,70.1,22.3c-7.6-17.8-51.7-35.4-68.4-27.3
	C1775.6,1543.4,1775.7,1546.4,1775.3,1548.3z M1758.1,845.6c3.3-2.4,9.6-6.7,9.4-7c-16.3-27.1-33.1-53.8-49.8-80.6
	c-2.6,1.4-5.1,2.9-7.7,4.3c13.8,28.6,27.7,57.2,41.5,85.7c10,42.6,27.2,63.3,55.5,63.7C1792.5,887.2,1789.3,856.5,1758.1,845.6z
	 M2014.1,1184.3c-23-11.8-24-11.7-29.9,3.4c-8.8,0.7-19-1.3-26.1,2.5c-34.5,18.7-68.4,38.6-102.1,58.9c-7.8,4.7-13.7,12.4-20.5,18.7
	c28.4-8.9,53.8-22.8,80.7-32.6c13.7-5,19.9-25.4,40-15.6c-2.6-5.4-3.9-8.1-5.4-11.1c11-2.2,26,11.8,29-9.5
	c5.7,1.6,11.5,3.3,20.6,5.8c-2.8-6.8-4.2-10.2-5.5-13.5c6.6,2,13.2,6,19.7,5.7c11-0.5,8.9-6.1,2.4-11.5c18.9,11.5,35-6.1,53.1-5.1
	c6.1,0.3,12.4-4.2,18.8-5.5c8.3-1.7,14-4,8.3-13.7c7.5,1.3,15.4,4.9,22.3,3.4c14.2-3,27.8-8.6,41.6-13.3c16.7-5.7,33.4-11.6,50-17.3
	c-0.8-2.6-1.7-5.3-2.5-7.9c-37.9,7.1-75.8,14.1-113.5,21.7c-2.8,0.6-4.7,5.2-7,8c-25.2,4.8-50.4,9.5-75.4,15
	C2012.1,1170.8,2013.6,1179.5,2014.1,1184.3z M1799,933.2c2.5,9.6,4.8,19.4,7.7,28.9c3.1,10.2,7,20.2,10.2,30.4
	c9,28.1,17.8,56.3,26.6,84.4c2.3-0.5,4.6-1,6.8-1.5c-4.3-26.3-7.2-53-13.5-78.9c-6-24.7-7.2-53.6-38.3-63.7c5.1,0,10.2,0,15.2,0
	c0.6-2.3,1.2-4.5,1.8-6.8c-9.6-4.3-19.2-8.7-28.9-13c-1.1,1.8-2.2,3.5-3.3,5.3C1788.6,923.4,1793.8,928.3,1799,933.2z
	 M1755.7,1207.9c20.6-85.6-82.3-304.8-142.7-305C1676.2,997.5,1729.1,1096.3,1755.7,1207.9z M1955.3,1046c1.4,1.3,2.7,2.5,4.1,3.8
	c79.3-63.4,157.3-128.1,215.1-213.9c-19.1,9.7-37,20.9-52.9,34.4c-14.8,12.6-26.8,28.2-41.1,41.4c-14.2,13-31,23.2-44.3,37
	c-14.7,15.3-26.5,33.4-40,49.9C1982.8,1014.6,1968.9,1030.2,1955.3,1046z M1875.2,1221.6c98.8-59.7,205.4-85.3,318.3-102.5
	C2117.7,1085,1928.6,1146.4,1875.2,1221.6z M2101.5,651.8c-68.9,44.4-172.5,199.5-167.9,246.8
	C1988.4,818.1,2044.7,735.4,2101.5,651.8z M2098.8,1343.1c-63.5-37-216-21.6-267,25.6C1920.2,1344,2009.7,1347.1,2098.8,1343.1z
	 M2098,718.8c-1.6-2-3.1-3.9-4.7-5.9c-10.5,5.2-23.2,8.3-31.2,16.2c-12.5,12.2-22.3,27.3-32.3,41.9c-18.6,27.2-36.7,54.7-54.5,82.4
	c-9.9,15.4-18.7,31.4-28,47.1c1.7,1.1,3.4,2.3,5.1,3.4C1999.9,841.3,2063.2,791.3,2098,718.8z M1712.2,201.1
	c65.6,78.6,110.3,168,137.1,266.6C1838.2,348.1,1782.2,239.6,1712.2,201.1z M1723.2,1520.4c67.2,14.7,141,30.9,213.1,46.7
	C1893,1513.3,1780.4,1500.8,1723.2,1520.4z M1574.7,1196.9c20.9,69.4,42,139.7,61.4,204.2
	C1653.5,1346.6,1627.3,1229.9,1574.7,1196.9z M1848.3,635.4c-15-69.5-95.7-145.9-151-161.1C1746.9,527.2,1799.1,582.9,1848.3,635.4z
	 M2093,971.2c6.1-2.3,13.8-5.2,21.5-8c-13.7-12.9-24.2-11.5-35.6-1.6c-35.1,30.5-70.9,60.2-106.4,90.3c-8,6.8-15.8,13.7-23.7,20.6
	c53-21,101.6-48,142.1-87.6C2093.6,982.2,2092.4,975.6,2093,971.2z M1659.3,460.8c-1.2,1.2-2.3,2.3-3.5,3.5c2,3.3,3.5,6.9,6,9.7
	c26.9,30.8,53.5,62,81.3,92.1c10.6,11.4,24.2,20.1,35.2,29.1c-0.2,0.4-3.9,5.6-3,6.6c8.5,9.1,18.7,11.9,33.2,5.1
	C1763.6,551,1712.8,504.5,1659.3,460.8z M1675.4,1650.5c-33.6-30.1-96.9-38.1-121.2-20.3C1593.5,1636.7,1634.4,1643.6,1675.4,1650.5
	z M1438,1439.8c17.8,36.8,35.7,73.7,53.5,110.5C1491.2,1505,1478.5,1465.6,1438,1439.8z M1661.8,999.4c-22.6-36.1-42.3-67.5-62-99
	c-2.2,1.2-4.5,2.5-6.7,3.7c7.5,14.6,14.9,29.2,22.5,43.7c5.1,9.9,14.3,19.5,14.8,29.6C1631.5,995.8,1641.9,997.4,1661.8,999.4z
	 M1680,179.8c-1.6,1.1-3.2,2.1-4.8,3.2c1.8,4.4,3,9.3,5.6,13.1c11.3,16.5,28.1,31.4,33.3,49.6c5.1,18.2,11.8,18.5,31,14.7
	C1721.7,231.5,1700.9,205.6,1680,179.8z M1656.6,1019.8c-10.6,17.6,10.2,45.4,35.2,47.1c-5.9-37.9-28.3-65.8-52.6-60
	C1646.3,1012.2,1651.5,1016.1,1656.6,1019.8z M1777.5,1406.9c35.7-8.2,71.5-16.4,111.1-25.5c-8.8-3.9-16.8-11-23.4-9.8
	C1833.6,1377.2,1802.8,1386.2,1777.5,1406.9z M1481.2,1590.6c2.4-46.9-20.2-86.6-47.6-124.7
	C1449.5,1507.5,1465.3,1549,1481.2,1590.6z M1611.6,1467.7c19.5-32.9,12.4-87.6-8.4-91.1C1605.9,1405.6,1608.6,1435,1611.6,1467.7z
	 M1828.2,457.8c1-47.8-19.5-85.4-40.9-87.2c6,13.1,12.3,27.1,18.8,41C1813.4,427,1820.9,442.4,1828.2,457.8z M1609.6,1353.7
	c2.6-30.9-11.4-60.7-32-66.9C1587.8,1309.6,1577.7,1340.7,1609.6,1353.7z M1987.5,1371.9c-11.8-13.9-60.7-14.7-80.9-4.2
	c16.1,17.6,24.8,18.3,34.3,2.9c11.6,2.4,24.6,17,35.3-4C1978.8,1367.8,1983.2,1369.8,1987.5,1371.9z M2072.5,716.9
	c13.1-4.7,27.1-5.4,30.6-11.8c11.5-20.9,19.1-44,28.2-66.2c-1.1-0.6-2.2-1.2-3.3-1.8C2110.5,662.3,2093,687.5,2072.5,716.9z
	 M1576.5,1263c2.4-1.3,4.9-2.6,7.3-3.9c-7.1-18.3-14.2-36.6-21.3-55c-1.6,0.7-3.3,1.4-4.9,2.1
	C1560.8,1226.4,1562.7,1247,1576.5,1263z M2088.7,1354.4c-22,1.2-44.1,2.4-67.7,3.7C2030.5,1370.3,2063.9,1369.3,2088.7,1354.4z
	 M1926.4,1578.4c-18.1-5-36.1-10-55.7-15.4C1876.3,1579.7,1898.8,1586.4,1926.4,1578.4z M1620.2,1659.2c0.4-2.9,0.9-5.8,1.3-8.8
	c-18.4-2.8-36.8-5.6-55.1-8.4c-0.5,3-0.9,6-1.4,9C1583.4,1653.8,1601.8,1656.5,1620.2,1659.2z M2173.1,882.8
	c-22.1-5.3-25.4,10.5-34.8,22.1C2159.3,910.4,2167,900,2173.1,882.8z M2138.3,928.9c-16,4.8-27.5,8.3-39.1,11.7
	c0.7,2.2,1.4,4.4,2,6.6C2115.6,953.5,2127.9,952.6,2138.3,928.9z M2165.2,872.4c18.8,1.1,23.3-5.2,21.5-30.5
	C2178.5,853.5,2172.3,862.3,2165.2,872.4z"/>
<path class="st1" d="M1797.3,821.2c13.5,29.3,29.7,57.6,39.6,88.1c9.8,30.2,13.3,62.5,16.1,94.9c-24.4-84.7-67.5-159.7-115.3-232.4
	c1.5-1.2,3-2.3,4.4-3.5c18.6,17.8,37.2,35.7,55.8,53.5C1797.9,821.8,1797.3,821.2,1797.3,821.2z"/>
<path class="st1" d="M731.8,898.3c-64,98.6-119,197-143.6,311.1C558.9,1138.1,651.8,934,731.8,898.3z"/>
<path class="st1" d="M385.1,1048.6C304,986.3,225.4,921.7,167.4,836C259.1,887.1,323.6,966.4,385.1,1048.6z"/>
<path class="st1" d="M149.6,1119.5c68.9-35.7,250.4,22.3,315.7,99.2C368.3,1162.8,262.2,1135.5,149.6,1119.5z"/>
<path class="st1" d="M464.8,716.8c48.6-105.9,130.6-183.4,218.2-256c1.5,1.1,3.1,2.3,4.6,3.4c-3.3,4.9-6.2,10.1-10,14.5
	c-25.8,29.1-51.3,58.4-77.9,86.7c-10.7,11.3-23.9,20.2-35.8,30.1c0-0.1,3.5,5.7,2.3,6.9c-16,16.2-32.7,31.8-45.8,49.4
	c-16.6,23-33.3,46.1-49.9,69.1C468.6,719.6,466.7,718.2,464.8,716.8z"/>
<path class="st1" d="M427.3,1357.2c-31.3-3.6-62.5-8.4-93.9-10.3c-29.5-1.8-59.1-0.4-93.4-0.4c49.1-40,188.1-29.7,266.2,17.6
	c-25.1-2.3-52.2-4.8-79.2-7.2L427.3,1357.2z"/>
<path class="st1" d="M248.1,651.2c32.1,36.5,65.9,71.7,95.9,110c32,40.9,52.8,88.3,68.8,143.3c-58.4-86-113.8-167.6-169.2-249.2
	C245.1,653.9,246.6,652.5,248.1,651.2z"/>
<path class="st1" d="M242.3,714.5c27.9,3.7,43.5,11.8,49.3,36.4c2.2,9.1,17.1,14.5,23.3,23.5c21.5,31.6,41.8,64,62.4,96.2
	c6.2,9.6,11.8,19.7,15.2,31.2C342.4,841.5,279.6,791.4,242.3,714.5z"/>
<path class="st1" d="M491.1,465.6c-2.8-89.6,62.1-215,137.9-266.9c-26.5,41.7-56.5,82.6-79.5,127.2
	C526.3,370.8,510.1,419.3,491.1,465.6z"/>
<path class="st1" d="M356.9,421.6c-15.5,96.3-1.1,188.2,40.5,279.6C333.9,645.2,312.1,491.2,356.9,421.6z"/>
<path class="st1" d="M601,772.4c-46.5,74.2-87.5,151.1-112.2,235.7C494.8,914.7,522.1,831.3,601,772.4z"/>
<path class="st1" d="M619.5,1520c-68.9,15.2-141.3,31.2-212.1,46.8C428.5,1524.8,560.6,1496.2,619.5,1520z"/>
<path class="st1" d="M769.2,1198c-21.1,70.4-54.6,137-58.4,213.2C681.1,1364.5,716.7,1233.1,769.2,1198z"/>
<path class="st1" d="M373.3,563.3c-2.6-2.3-7.3-4.4-7.6-7c-7.7-63.1-5.6-125.3,16.4-185.8c0.2-0.5,1.1-0.7,6.1-3.6
	c0.5,24.1,1.3,45.8,1.3,67.5c0,18.7,1,37.6-2,55.9c-3.5,21.8,8,45.1-6.7,65.5C378.4,558.1,375.9,560.7,373.3,563.3z"/>
<path class="st1" d="M654.6,469.5c-31.7,30.6-60.6,56.4-87.1,84.5c-26.1,27.7-49.8,57.7-74.3,86.4
	C500,582.7,583.6,491.7,654.6,469.5z"/>
<path class="st1" d="M394.5,1077.1c-52.9-26.1-102-51.5-141.9-91.3c-3.2-3.2-3-9.7-4.2-14.4c-5.6-2.3-13.4-5.5-21.2-8.7
	c0.7-3.1,1.4-6.1,2.1-9.2c10.2,1.5,23.3-0.5,30.2,5.1c44.8,36.2,88.2,74,132,111.3C392.4,1070.8,392.5,1072.3,394.5,1077.1z"/>
<path class="st1" d="M352.6,1191.6c12.9-8.4,25.8-7,38.3,0.6c34.7,21.2,69.3,42.6,104,63.9c6,3.7,12,7.3,18,11
	c-1.8,1.9-3.5,3.8-5.3,5.7c-40-18.9-80-37.8-119.8-56.9c-0.1-0.1,1.6-4,2.6-6.3c-25.6,1-25.6,1-26.3-10.5
	c-19.7,6.1-19.7,6.1-17.4-5.3C348.7,1193.1,350.7,1192.4,352.6,1191.6z"/>
<path class="st1" d="M548,913.9c9.2,0.2,10.7,2.5,5.9,11.6c-8.7,16.6-16.2,34.1-22.4,51.8c-10.5,29.9-19.5,60.2-29.2,90.3
	c-0.9,2.8-2.8,5.3-4.8,9.1c-9.2-37.3,16.2-127.8,37.9-139.1c-15.4-18.8,6.8-17.1,13.1-24C548.4,913.6,548,913.9,548,913.9z"/>
<path class="st1" d="M641.4,1116.3c-1.5,11.1-1.5,22.7-4.9,33.2c-10.4,32.1-22.1,63.7-33.2,95.6c-2.5,7.1-4.7,14.4-7,21.6
	c-1.6-0.2-3.2-0.4-4.8-0.6c1.8-17.1,2.2-34.4,5.6-51.1c4.6-22.7,11.7-44.9,17.2-67.4c3.8-15.5,11.5-26.8,27.4-31.4L641.4,1116.3z"/>
<path class="st1" d="M245.4,1162.6c-11.8-1.2-24-1-35.3-4c-26.4-7-52.4-15.5-78.6-23.5c0.7-2.8,1.4-5.7,2.1-8.5
	c39.3,6.7,78.5,13.4,120.6,20.6c-4.4,7.5-6.8,11.6-9.2,15.7L245.4,1162.6z"/>
<path class="st1" d="M245,1163c29.5-21.1,55.7,0.3,82.8,7.1c1.3,0.3,0.3,9.9,0.4,15.1c0,0-1.5,0.3-1.5,0.3
	c-22.1,6.5-41.7,2.6-59.1-13c-1.6-1.5-7,2-10.6,1.8c-7-0.4-17.7,2.1-11.6-11.7C245.4,1162.6,245,1163,245,1163z"/>
<path class="st1" d="M548.8,344.7c4.7-4.3,9.5-8.6,13.6-12.2c-3-23.6,15.8-38.2,26.4-55.6c4.2-6.8,16.6-8.6,25.3-12.7
	c1.1,1.8,2.2,3.6,3.2,5.5c-1,2.9-1.3,6.4-3.1,8.6c-7.9,9.5-23.7,19.6-22.7,27.8c1.7,13.8-8.6,15.8-12.3,23.4
	C570.5,347,570.8,347.2,548.8,344.7z"/>
<path class="st1" d="M373.3,563.3c2.5-2.6,5.1-5.1,7.6-7.7c3.1,6.1,9.4,12.7,8.8,18.4c-3.9,35.4,11.4,68.1,13,102.7
	c0,0.5-0.7,1-5.1,7c-9.3-31.6-18.4-59.2-25.2-87.4C369.9,585.9,372.9,574.3,373.3,563.3z"/>
<path class="st1" d="M665.9,1650.9c37.2-31.3,78.9-34,122.9-21.3C747.8,1636.7,706.9,1643.8,665.9,1650.9z"/>
<path class="st1" d="M906.8,1436.8c-19.8,39.9-38,76.4-56.2,113.1C844.7,1510.9,870.5,1456.6,906.8,1436.8z"/>
<path class="st1" d="M426.9,1357c4.7,3.2,9.4,6.5,15.7,10.9c-17.2,13.2-31.4,16.8-48.1,12.8c-14-3.4-28.3-5.2-43.5-7.9
	c8.1-19.8,24.8-15.1,39.9-15c12.2,0.1,24.3-0.3,36.5-0.5C427.3,1357.2,426.9,1357,426.9,1357z"/>
<path class="st1" d="M750.5,905.2c-12.7,22.6-25.7,45.1-37.9,68c-3,5.5-1.8,14-5.8,18c-4.5,4.6-12.5,5.8-19,8.5
	c-1.5-1.8-2.9-3.6-4.4-5.3c19.9-31.2,39.9-62.4,59.8-93.6C745.7,902.3,748.1,903.8,750.5,905.2z"/>
<path class="st1" d="M583,847.8c1.9,2.1,5.9,5.3,5.4,6.3c-8.2,17.3-16.5,34.6-26.1,51.1c-2.5,4.3-9.5,5.9-14.4,8.8
	c0,0,0.4-0.3,0.4-0.3c-3.3-2.9-9.8-7.4-9.2-8.5c7.9-16.8,15.9-33.6,25.9-49.2c3.1-4.8,12.1-5.7,18.4-8.4L583,847.8z"/>
<path class="st1" d="M698.6,1001.4c-6.9,19.1-10.4,35-18.3,48.2c-5.7,9.4-17.5,15.1-26.7,22.4c-2-1.9-4.1-3.8-6.1-5.7
	c9.9-19.2,18.9-38.9,30.2-57.3C680.7,1004.4,690.8,1004.1,698.6,1001.4z"/>
<path class="st1" d="M583.4,847.5c-3.1-3.1-9.4-8.2-8.9-9c16.6-27.2,33.8-53.9,51-80.7c2.2,1.2,4.3,2.4,6.5,3.6
	c-9.4,20.5-18,41.3-28.5,61.2c-5,9.4-13.5,16.9-20.5,25.3C583,847.8,583.4,847.5,583.4,847.5z"/>
<path class="st1" d="M670,184.6c-13.7,19.9-29.9,38.6-40.3,60.1c-6.2,12.8-9.7,21.2-28.3,16.7c15.9-32.6,40.3-56.2,62.4-81.4
	C666,181.5,668,183,670,184.6z"/>
<path class="st1" d="M566.6,1407.4c-36-8.2-72-16.5-112.2-25.6c8.5-4,16.3-11.2,22.6-10.1C509,1377.3,540.3,1386,566.6,1407.4z"/>
<path class="st1" d="M730.5,1466.6c-19.3-35.4-12.5-84.6,9.6-91.2C737,1404.7,733.8,1434.7,730.5,1466.6z"/>
<path class="st1" d="M754.1,1288.1c2.5-0.6,5-1.2,7.6-1.8c-3.7,54.4-4.8,57-32.3,67.6c7.4-23.9,6-48.3,25-65.9L754.1,1288.1z"/>
<path class="st1" d="M679,1550.5c-30.3,0-60.5,0-89.7,0C599.2,1529.9,646,1526.4,679,1550.5z"/>
<path class="st1" d="M498.7,1559c21.3-7.3,42.6-14.5,63.9-21.8c1.6,2.8,3.2,5.5,4.9,8.3c-6.8,5.9-12.8,14.6-20.7,17.2
	c-11.4,3.7-24.2,2.9-36.4,4c-0.9-2.6-1.9-5.3-2.8-7.9c-2.3,4.3-4.7,8.6-7,12.8c-1-0.7-2.1-1.5-3.1-2.2c0.5-3.6,1-7.2,1.6-10.8
	L498.7,1559z"/>
<path class="st1" d="M215.5,639c17.2,24.4,34.4,48.8,51.4,73c-26.8-0.1-27.2-1.1-35.7-25.1c-5.5-15.5-13.3-30.3-20-45.4
	C212.7,640.7,214.1,639.9,215.5,639z"/>
<path class="st1" d="M507.8,456.1c8.4-24.8,15.7-50.1,25.8-74.3c2.8-6.7,13.8-9.9,24.3-16.9c-16.3,34.6-30.2,64.1-44.2,93.5
	C511.8,457.7,509.8,456.9,507.8,456.1z"/>
<path class="st1" d="M859.7,1597.7c-1.7-43,13.6-75.1,30.8-106.6c2.3,0.8,4.6,1.6,6.9,2.4C885.5,1526.5,873.6,1559.6,859.7,1597.7z"
	/>
<path class="st1" d="M723.9,1651.3c31.7-10.3,63.8-11.3,96.4-2.3c-32,2.9-64,5.8-96,8.6C724.2,1655.6,724,1653.4,723.9,1651.3z"/>
<path class="st1" d="M754.4,1287.9c2.1-11.8,3.2-24,6.7-35.3c5.3-16.9,12.4-33.3,21.4-48.9c-7.2,28.9-1,62-28.4,84.4
	C754.1,1288.1,754.4,1287.9,754.4,1287.9z"/>
<path class="st1" d="M498.9,1558.7c-10.6,15.9-25.2,19.9-44,18.8c-12.2-0.7-24.8,5.4-37.2,8.4c-0.7-2.8-1.4-5.5-2-8.3
	c27.7-6.1,55.3-12.3,83-18.5C498.7,1559,498.9,1558.7,498.9,1558.7z"/>
<path class="st1" d="M247.3,1356.8c27.6,0,51,0,75.4,0C315.8,1371.1,283.4,1370.9,247.3,1356.8z"/>
<path class="st1" d="M169.4,883.7c21.5-8.6,25,8.9,34.8,20.5C183,911.3,176.2,898.9,169.4,883.7z"/>
<path class="st1" d="M641.8,1116.1c-4.1-0.9-8.1-1.9-12.2-2.8c1.9-4.4,2.8-9.5,5.8-13c3.5-4.2,8.7-6.9,13.2-10.2
	c1.9,0.5,3.9,1,5.8,1.4c9,15.2-3.8,19.1-13,24.8C641.4,1116.3,641.8,1116.1,641.8,1116.1z"/>
<path class="st1" d="M326.8,1185.5c0,0,1.5-0.3,1.5-0.3c5-2.9,9.8-6.9,15.2-8.3c3.6-0.9,9.5,0.7,11.9,3.3c1.5,1.7-1.6,7.4-2.7,11.4
	c-2,0.7-3.9,1.5-5.9,2.2c-6.2,1.2-12.7,4-18.7,3.2C316.2,1195.5,320.3,1190.2,326.8,1185.5z"/>
<path class="st1" d="M208.6,930.4c11.6,3.4,23.2,6.7,34.7,10.1c-0.6,2.1-1.2,4.2-1.8,6.2C227,953.9,214.8,953.1,208.6,930.4z"/>
<path class="st1" d="M654.4,1091.5c-1.9-0.5-3.9-0.9-5.8-1.4c-11,3.3-12.8-2.7-6.3-8.7c6.3-5.8,16-7.9,24.2-11.6
	c1.1,1.7,2.3,3.4,3.4,5.1C664.8,1080.4,659.6,1085.9,654.4,1091.5z"/>
<path class="st1" d="M1755.7,1207.9c-26.6-111.5-79.5-210.4-142.7-305C1673.4,903.1,1776.3,1122.3,1755.7,1207.9z"/>
<path class="st1" d="M1955.3,1046c13.6-15.8,27.5-31.4,40.8-47.5c13.6-16.5,25.3-34.6,40-49.9c13.3-13.8,30.1-24,44.3-37
	c14.3-13.1,26.4-28.8,41.1-41.4c15.9-13.5,33.8-24.7,52.9-34.4c-57.8,85.8-135.8,150.5-215.1,213.9
	C1958,1048.5,1956.7,1047.3,1955.3,1046z"/>
<path class="st1" d="M1875.2,1221.6c53.4-75.1,242.6-136.6,318.3-102.5C2080.6,1136.2,1973.9,1161.9,1875.2,1221.6z"/>
<path class="st1" d="M1958.2,652.6c22.6-33.6,27.7-72.5,30-111.1c2.1-36-1.6-72.4-2.7-108.7c-0.1-2.5,0-5.1,3.9-9
	c3.6,9.4,7.3,18.9,10.8,28.3c23.2,61.8,7.4,121.4-10.6,180.7c-4.6,15-13.2,28.8-19.9,43.2c0,0,0.3-0.4,0.3-0.4
	c-13.1,18.1-26.3,36.2-39.4,54.4c-2.2-1.1-4.4-2.2-6.6-3.3c3.8-8.1,6-17.8,11.8-24c13.8-14.5,23.5-30,22.7-50.7
	C1958.5,652.2,1958.2,652.6,1958.2,652.6z"/>
<path class="st1" d="M2101.5,651.8c-56.9,83.6-113.2,166.3-167.9,246.8C1929,851.3,2032.6,696.2,2101.5,651.8z"/>
<path class="st1" d="M2098.8,1343.1c-89,4-178.5,0.9-267,25.6C1882.7,1321.5,2035.2,1306.1,2098.8,1343.1z"/>
<path class="st1" d="M2098,718.8c-34.8,72.5-98.2,122.5-145.5,185.1c-1.7-1.1-3.4-2.3-5.1-3.4c9.3-15.7,18.1-31.8,28-47.1
	c17.8-27.7,35.9-55.3,54.5-82.4c10-14.6,19.8-29.6,32.3-41.9c8-7.8,20.6-10.9,31.2-16.2C2094.9,714.8,2096.5,716.8,2098,718.8z"/>
<path class="st1" d="M1712.2,201.1c70,38.5,126,147,137.1,266.6C1822.5,369,1777.8,279.7,1712.2,201.1z"/>
<path class="st1" d="M1723.2,1520.4c57.2-19.6,169.8-7,213.1,46.7C1864.2,1551.3,1790.4,1535.1,1723.2,1520.4z"/>
<path class="st1" d="M1961.9,554.9c-2.7-11.3-8.3-22.8-7.5-33.8c3.2-44.2-1.1-88.3-0.6-132.5c0.1-6.6,1.8-13.1,2.7-19.6
	c2.3-0.1,4.6-0.3,6.9-0.4c5,26.9,12.3,53.6,14.4,80.7c2.5,32.6,0.9,65.6,0.2,98.4c-0.1,5.2-5.4,10.3-8.2,15.4
	C1967.1,560.4,1964.5,557.6,1961.9,554.9z"/>
<path class="st1" d="M1574.7,1196.9c52.6,33,78.8,149.7,61.4,204.2C1616.7,1336.6,1595.5,1266.3,1574.7,1196.9z"/>
<path class="st1" d="M1848.3,635.4c-49.2-52.5-101.4-108.2-151-161.1C1752.6,489.5,1833.4,565.9,1848.3,635.4z"/>
<path class="st1" d="M2093,971.2c-0.6,4.4,0.6,11-2.1,13.7c-40.4,39.6-89,66.6-142.1,87.6c7.9-6.9,15.7-13.8,23.7-20.6
	c35.5-30.1,71.3-59.7,106.4-90.3c11.4-9.9,21.9-11.4,35.6,1.6C2106.8,966,2099.1,968.9,2093,971.2z"/>
<path class="st1" d="M1659.3,460.8c53.5,43.7,104.2,90.2,149.2,146c-14.5,6.8-24.6,4-33.2-5.1c-0.9-0.9,2.8-6.1,3-6.6
	c-11-9-24.6-17.7-35.2-29.1c-27.8-30-54.4-61.2-81.3-92.1c-2.5-2.8-4-6.5-6-9.7C1657,463.2,1658.2,462,1659.3,460.8z"/>
<path class="st1" d="M1994.9,1191.3c1.4,3.4,2.8,6.7,5.6,13.5c-9.1-2.6-14.8-4.2-20.6-5.9c-3,21.4-17.9,7.3-29,9.5
	c1.5,3,2.8,5.7,5.4,11.1c-20.2-9.7-26.3,10.7-40,15.6c-26.9,9.8-52.2,23.7-80.7,32.6c6.8-6.3,12.7-14,20.5-18.7
	c33.7-20.3,67.6-40.2,102.1-58.9c7.1-3.8,17.3-1.8,26.1-2.5C1987.8,1188.9,1991.3,1190.1,1994.9,1191.3z"/>
<path class="st1" d="M1701.4,1116c15.8,5.1,22,17.1,26.8,32.2c12.2,38.2,21.1,76.8,23.3,116.7c-1.6,0.6-3.1,1.1-4.7,1.7
	c-2-5.3-4.3-10.5-6-15.9c-6.9-21.5-16.9-42.6-19.5-64.6c-2.5-21.4-19-35-22.8-54.5c-0.9-4.7,2.1-10.2,3.2-15.4
	C1701.8,1116.2,1701.4,1116,1701.4,1116z"/>
<path class="st1" d="M1853.2,711.3c-1.6-7.6-1.9-15.8-5.1-22.6c-6.5-13.6-14.7-26.3-22.2-39.4c-0.3-0.6-0.6-1.2-1.1-1.6
	c-11-9.9-22-19.8-34.6-31.1c15.4-7.3,25.6-4,33.1,7.9c13.9,21.8,27.4,43.8,41.2,65.6c6.5,10.3,13.9,20,19.5,30.7
	c3,5.7,3.2,13,5.2,21.5c-13.7-11.8-25-21.6-36.4-31.4C1852.9,711,1853.2,711.3,1853.2,711.3z"/>
<path class="st1" d="M1798.6,932.9c31.1,10.1,32.3,39,38.3,63.7c6.2,25.9,9.1,52.6,13.5,78.9c-2.3,0.5-4.6,1-6.8,1.5
	c-8.9-28.1-17.7-56.3-26.6-84.4c-3.2-10.2-7.1-20.2-10.2-30.4c-2.9-9.5-5.1-19.2-7.7-28.9L1798.6,932.9z"/>
<path class="st1" d="M2088,1155.7c2.3-2.8,4.2-7.5,7-8c37.8-7.6,75.7-14.5,113.5-21.7c0.8,2.6,1.7,5.3,2.5,7.9
	c-16.7,5.8-33.3,11.7-50,17.3c-13.8,4.7-27.5,10.3-41.6,13.3c-6.9,1.5-14.8-2.1-22.3-3.4C2094.1,1159.3,2091,1157.5,2088,1155.7z"/>
<path class="st1" d="M2088,1155.7c3.1,1.8,6.1,3.7,9.1,5.5c5.7,9.7,0,12.1-8.3,13.7c-6.4,1.3-12.6,5.8-18.8,5.5
	c-18-0.9-34.2,16.7-53,5.1c-1-0.2-2-0.6-2.9-1.2c-0.6-4.7-2-13.5-1.6-13.6C2037.6,1165.2,2062.8,1160.5,2088,1155.7z"/>
<path class="st1" d="M1961.9,554.9c2.6,2.7,5.2,5.5,7.8,8.2c0.4,11.8,2.5,23.8,0.8,35.3c-2.7,18.3-8,36.2-12.3,54.2
	c0,0,0.3-0.4,0.3-0.4c-5.4,10.9-10.7,21.8-16.1,32.7c-1.3-0.3-2.6-0.7-3.8-1c3.2-20.2,6.7-40.3,9.4-60.6c2.8-21.1,4.5-42.4,7.2-63.5
	C1955.4,557.9,1959.6,556.5,1961.9,554.9z"/>
<path class="st1" d="M1675.4,1650.5c-41-6.9-81.9-13.7-121.2-20.3C1578.5,1612.3,1641.8,1620.3,1675.4,1650.5z"/>
<path class="st1" d="M1758.1,845.6c31.2,11,34.4,41.6,49,66.1c-28.3-0.4-45.5-21.1-55.5-63.7
	C1753.7,847.2,1755.9,846.4,1758.1,845.6z"/>
<path class="st1" d="M1438,1439.8c40.5,25.8,53.2,65.2,53.5,110.5C1473.7,1513.5,1455.9,1476.7,1438,1439.8z"/>
<path class="st1" d="M1775,1547.9c0.4,3.1,0.8,6.2,0.9,7.2c-38.4-2.7-76.4-5.4-119.1-8.4c29.1-12.1,55.8-14.6,82.6-10.9
	c12.3,1.7,23.9,8.2,35.8,12.5L1775,1547.9z"/>
<path class="st1" d="M1758.1,845.6c-2.2,0.8-4.4,1.6-6.5,2.4c-13.8-28.6-27.7-57.2-41.5-85.7c2.6-1.4,5.1-2.9,7.7-4.3
	c16.8,26.8,33.5,53.6,49.8,80.6C1767.7,838.9,1761.4,843.1,1758.1,845.6z"/>
<path class="st1" d="M1766.7,329.3c-7.9-5-22.7-29.5-27.1-39.7c-3-6.9-10-12.1-15.9-18.9c25.8-8,39,5.5,59.1,58.4
	c-6.2,0-11.3,0-16.5,0L1766.7,329.3z"/>
<path class="st1" d="M1661.8,999.4c-19.9-2-30.3-3.6-31.4-22c-0.6-10.1-9.7-19.7-14.8-29.6c-7.6-14.5-15-29.1-22.5-43.7
	c2.2-1.2,4.5-2.5,6.7-3.7C1619.5,931.9,1639.2,963.3,1661.8,999.4z"/>
<path class="st1" d="M1680,179.8c20.9,25.9,41.8,51.7,65.1,80.6c-19.2,3.8-25.8,3.5-31-14.7c-5.2-18.2-21.9-33-33.3-49.6
	c-2.6-3.9-3.8-8.7-5.6-13.1C1676.8,181.9,1678.4,180.8,1680,179.8z"/>
<path class="st1" d="M1656.6,1019.9c-5.2-3.8-10.3-7.6-17.4-12.9c24.3-5.9,46.7,22.1,52.6,60
	C1666.8,1065.3,1646,1037.4,1656.6,1019.9z"/>
<path class="st1" d="M1777.5,1406.9c25.3-20.8,56.1-29.7,87.8-35.3c6.6-1.2,14.6,5.9,23.4,9.8
	C1849,1390.6,1813.3,1398.8,1777.5,1406.9z"/>
<path class="st1" d="M1481.2,1590.6c-15.9-41.6-31.7-83.1-47.6-124.7C1461,1504,1483.6,1543.7,1481.2,1590.6z"/>
<path class="st1" d="M1611.6,1467.7c-3-32.7-5.7-62.1-8.4-91.1C1624,1380.1,1631.1,1434.8,1611.6,1467.7z"/>
<path class="st1" d="M1775.3,1548.3c0.4-1.9,0.3-4.9,1.4-5.4c16.7-8,60.9,9.5,68.4,27.3c-24.3-5.2-51.7,0.5-70.1-22.3
	C1775,1547.9,1775.3,1548.3,1775.3,1548.3z"/>
<path class="st1" d="M1828.2,457.8c-7.4-15.4-14.8-30.8-22-46.2c-6.5-13.9-12.8-27.9-18.8-41C1808.8,372.4,1829.2,410,1828.2,457.8z
	"/>
<path class="st1" d="M1609.6,1353.7c-32-13-21.8-44.1-32-66.9C1598.2,1293,1612.2,1322.8,1609.6,1353.7z"/>
<path class="st1" d="M1987.5,1371.9c-4.3-2-8.6-4.1-11.2-5.3c-10.7,21-23.8,6.4-35.3,4c-9.6,15.4-18.2,14.6-34.3-2.9
	C1926.8,1357.2,1975.6,1358,1987.5,1371.9z"/>
<path class="st1" d="M2072.5,716.9c20.5-29.5,38.1-54.6,55.6-79.8c1.1,0.6,2.2,1.2,3.3,1.8c-9.1,22.2-16.8,45.2-28.2,66.2
	C2099.6,711.5,2085.6,712.2,2072.5,716.9z"/>
<path class="st1" d="M1576.5,1263c-13.8-15.9-15.7-36.6-18.9-56.8c1.6-0.7,3.3-1.4,4.9-2.1c7.1,18.3,14.2,36.6,21.3,55
	C1581.4,1260.4,1579,1261.7,1576.5,1263z"/>
<path class="st1" d="M2088.7,1354.4c-24.8,14.9-58.2,15.8-67.7,3.7C2044.6,1356.9,2066.6,1355.6,2088.7,1354.4z"/>
<path class="st1" d="M1926.4,1578.4c-27.7,8-50.1,1.3-55.7-15.4C1890.3,1568.4,1908.3,1573.4,1926.4,1578.4z"/>
<path class="st1" d="M1620.2,1659.2c-18.4-2.7-36.8-5.4-55.2-8.1c0.5-3,0.9-6,1.4-9c18.4,2.8,36.8,5.6,55.1,8.4
	C1621.1,1653.4,1620.7,1656.3,1620.2,1659.2z"/>
<path class="st1" d="M2014.1,1184.3c0.9,0.6,1.8,1,2.9,1.2c6.5,5.4,8.6,11.1-2.4,11.5c-6.5,0.3-13.2-3.7-19.7-5.7
	c-3.6-1.2-7.1-2.4-10.6-3.6C1990.1,1172.5,1991.1,1172.4,2014.1,1184.3z"/>
<path class="st1" d="M2173.1,882.8c-6.1,17.3-13.7,27.6-34.8,22.1C2147.6,893.3,2151,877.5,2173.1,882.8z"/>
<path class="st1" d="M2138.3,928.9c-10.4,23.7-22.7,24.7-37.1,18.4c-0.7-2.2-1.4-4.4-2-6.6C2110.8,937.1,2122.3,933.7,2138.3,928.9z
	"/>
<path class="st1" d="M1693.6,1092.8c5.3,3.3,11.1,6,15.7,10c2.4,2.1,2.6,6.7,3.8,10.2c-3.9,1-7.8,2-11.7,3c0,0,0.4,0.2,0.4,0.2
	c-5.4-4.2-12.2-7.5-15.8-12.9c-5.4-8.2-0.7-11.5,8-10.3L1693.6,1092.8z"/>
<path class="st1" d="M1694,1093.1c-7.4-5.8-14.7-11.7-22.1-17.5c1.5-2.3,3-4.5,4.5-6.8c8.4,5,16.8,10.1,25.3,15.1
	c-2.7,3-5.4,5.9-8.1,8.9C1693.6,1092.8,1694,1093.1,1694,1093.1z"/>
<path class="st1" d="M2165.2,872.4c7.2-10.2,13.4-19,21.5-30.5C2188.5,867.2,2184,873.6,2165.2,872.4z"/>
<path class="st1" d="M1766.3,329.1c9,4.3,18,8.5,27.1,12.8c-21.1,8.4-30.2,2.1-26.6-12.6C1766.7,329.3,1766.3,329.1,1766.3,329.1z"
	/>
<path class="st1" d="M1799,933.2c-5.2-4.9-10.3-9.9-15.5-14.8c1.1-1.8,2.2-3.5,3.3-5.3c9.6,4.3,19.2,8.7,28.9,13
	c-0.6,2.3-1.2,4.5-1.8,6.8c-5.1,0-10.2,0-15.2,0C1798.6,932.9,1799,933.2,1799,933.2z"/>
</svg>
